<svg width="31" height="31" viewBox="0 0 31 31" fill="none" xmlns="http://www.w3.org/2000/svg">
<path d="M15.5 18.067C17.6686 18.067 19.4294 19.8254 19.4294 21.9963V30.1567H11.5683V21.9963C11.5683 19.8277 13.3291 18.067 15.5 18.067Z" fill="white"/>
<path d="M19.4294 30.1567V21.9986C19.4422 21.4744 19.35 20.9528 19.1583 20.4647C18.9665 19.9766 18.679 19.5318 18.3128 19.1565C17.9465 18.7812 17.5089 18.4829 17.0256 18.2792C16.5424 18.0756 16.0232 17.9707 15.4988 17.9707C14.9744 17.9707 14.4553 18.0756 13.972 18.2792C13.4887 18.4829 13.0511 18.7812 12.6849 19.1565C12.3186 19.5318 12.0311 19.9766 11.8394 20.4647C11.6476 20.9528 11.5554 21.4744 11.5683 21.9986V30.1567" stroke="#FBFBFB" stroke-linecap="round" stroke-linejoin="round"/>
<path d="M0.965864 25.3576L0.843292 15.7499C4.56994 9.66137 7.61065 6.1728 14.2036 1.64001C14.5849 1.37749 15.037 1.23694 15.5 1.23694C15.963 1.23694 16.4151 1.37749 16.7964 1.64001C23.3894 6.17044 26.4301 9.65901 30.1567 15.7475L30.0365 25.3552C29.9092 26.452 29.4154 27.4736 28.6351 28.2548C27.8548 29.0359 26.8337 29.5308 25.7371 29.6594C18.9335 30.4183 12.0666 30.4183 5.26294 29.6594C4.16676 29.5303 3.14618 29.0352 2.36635 28.2541C1.58653 27.473 1.09308 26.4516 0.965864 25.3552V25.3576Z" stroke="#FBFBFB" stroke-linecap="round" stroke-linejoin="round"/>
</svg>
