<svg width="51" height="50" viewBox="0 0 51 50" fill="none" xmlns="http://www.w3.org/2000/svg">
<g clip-path="url(#clip0_18_172)">
<path d="M0.827148 0H50.8271V50H0.827148V0Z" fill="#F0DB4F"/>
<path d="M46.7349 38.0751C46.3689 35.7937 44.8813 33.8783 40.4754 32.0913C38.945 31.3878 37.2387 30.8841 36.7302 29.7243C36.5495 29.0494 36.5258 28.6692 36.6399 28.2605C36.9678 26.9344 38.5505 26.5209 39.8052 26.9011C40.6132 27.1721 41.3784 27.7947 41.8395 28.788C43.9973 27.3907 43.9925 27.4002 45.4992 26.4402C44.9478 25.5847 44.6532 25.1901 44.2919 24.8242C42.9944 23.3746 41.2264 22.6284 38.3984 22.6854C37.9089 22.7472 37.4146 22.8137 36.925 22.8755C35.5135 23.232 34.1684 23.9734 33.3794 24.9668C31.0125 27.6521 31.6874 32.3527 34.5676 34.2871C37.4051 36.4164 41.5733 36.9012 42.1056 38.8926C42.6237 41.3309 40.3139 42.1198 38.0182 41.8394C36.3262 41.4877 35.3851 40.6274 34.368 39.0637C32.4954 40.1474 32.4954 40.1474 30.5705 41.2548C31.0268 42.2529 31.5068 42.7044 32.272 43.5694C35.8937 47.2434 44.9573 47.0628 46.5829 41.502C46.6494 41.3118 47.0867 40.038 46.7349 38.0751ZM28.0087 22.98H23.3319C23.3319 27.02 23.3129 31.0314 23.3129 35.0713C23.3129 37.6426 23.446 40 23.0277 40.7224C22.3433 42.1435 20.5705 41.9677 19.7625 41.692C18.9403 41.288 18.522 40.7129 18.0372 39.9002C17.9042 39.6673 17.8043 39.4867 17.771 39.4724C16.5021 40.2472 15.2378 41.0266 13.9688 41.8013C14.6009 43.0989 15.5324 44.2253 16.7254 44.9572C18.5077 46.0266 20.9032 46.3545 23.408 45.7794C25.0382 45.3041 26.445 44.3203 27.1817 42.8232C28.2463 40.8603 28.0182 38.4838 28.0087 35.8555C28.0324 31.5684 28.0087 27.2814 28.0087 22.98Z" fill="#323330"/>
</g>
<defs>
<clipPath id="clip0_18_172">
<rect width="50" height="50" fill="white" transform="translate(0.827148)"/>
</clipPath>
</defs>
</svg>
