              <svg
                className="2xl:w-11 2xl:h-13
                xl:w-8 xl:h-10
                lg:w-8 lg:h-10
                md:w-7 md:h-7
                sm:w-6 sm:h-6
                w-6 h-6"
                width="53"
                height="60"
                viewBox="0 0 53 60"
                fill="none"
                xmlns="http://www.w3.org/2000/svg"
              >
                <g clip-path="url(#clip0_18_164)">
                  <path
                    d="M52.656 30.0054C52.656 26.5171 48.2877 23.2114 41.5903 21.1614C43.1358 14.3352 42.4489 8.90432 39.4222 7.16558C38.7246 6.75773 37.9089 6.56454 37.018 6.56454V8.95799C37.5118 8.95799 37.9089 9.05459 38.2416 9.23705C39.7013 10.0742 40.3345 13.2619 39.8408 17.3619C39.7228 18.3708 39.5296 19.4334 39.2934 20.5174C37.1898 20.0022 34.8929 19.6051 32.478 19.3475C31.029 17.3619 29.5264 15.5588 28.0131 13.981C31.512 10.7289 34.7963 8.94726 37.0288 8.94726V6.5538C34.0772 6.5538 30.2133 8.65747 26.3065 12.3067C22.3997 8.67893 18.5359 6.59673 15.5843 6.59673V8.99019C17.806 8.99019 21.101 10.7611 24.6 13.9918C23.0974 15.5695 21.5948 17.3619 20.1673 19.3475C17.7416 19.6051 15.4448 20.0022 13.3411 20.5281C13.0942 19.4548 12.9118 18.4137 12.783 17.4156C12.2785 13.3156 12.901 10.1279 14.35 9.27998C14.672 9.08679 15.0906 9.00092 15.5843 9.00092V6.60747C14.6827 6.60747 13.867 6.80066 13.1586 7.20851C10.1427 8.94726 9.46649 14.3674 11.0228 21.1721C4.34686 23.2329 0 26.5279 0 30.0054C0 33.4936 4.36832 36.7993 11.0657 38.8493C9.52015 45.6755 10.2071 51.1064 13.2338 52.8451C13.9314 53.253 14.7471 53.4462 15.6487 53.4462C18.6003 53.4462 22.4641 51.3425 26.3709 47.6933C30.2777 51.3211 34.1416 53.4033 37.0932 53.4033C37.9947 53.4033 38.8105 53.2101 39.5188 52.8022C42.5348 51.0635 43.211 45.6433 41.6547 38.8386C48.3091 36.7886 52.656 33.4828 52.656 30.0054ZM38.6817 22.8465C38.2845 24.231 37.7908 25.6585 37.2327 27.086C36.7927 26.2274 36.3311 25.3687 35.8267 24.5101C35.333 23.6514 34.8071 22.8143 34.2811 21.9986C35.8052 22.224 37.2756 22.503 38.6817 22.8465ZM33.766 34.2771C32.9288 35.726 32.0701 37.0999 31.1793 38.3771C29.5801 38.5166 27.9594 38.5917 26.328 38.5917C24.7073 38.5917 23.0866 38.5166 21.4982 38.3878C20.6073 37.1106 19.7379 35.7475 18.9008 34.3093C18.0851 32.9033 17.3445 31.4758 16.6683 30.0376C17.3338 28.5993 18.0851 27.1611 18.89 25.7551C19.7272 24.3062 20.5859 22.9323 21.4767 21.6551C23.0759 21.5156 24.6966 21.4404 26.328 21.4404C27.9487 21.4404 29.5694 21.5156 31.1578 21.6444C32.0487 22.9216 32.918 24.2847 33.7552 25.7229C34.5709 27.1289 35.3115 28.5564 35.9877 29.9946C35.3115 31.4328 34.5709 32.8711 33.766 34.2771ZM37.2327 32.8818C37.8123 34.32 38.306 35.7582 38.7139 37.1535C37.3078 37.497 35.8267 37.7868 34.2919 38.0122C34.8178 37.1857 35.3437 36.3378 35.8374 35.4685C36.3311 34.6098 36.7927 33.7404 37.2327 32.8818ZM26.3495 44.3339C25.3513 43.3035 24.3531 42.1551 23.3657 40.8993C24.3317 40.9423 25.3191 40.9745 26.3173 40.9745C27.3262 40.9745 28.3243 40.953 29.301 40.8993C28.3351 42.1551 27.3369 43.3035 26.3495 44.3339ZM18.3641 38.0122C16.84 37.7868 15.3696 37.5077 13.9636 37.1643C14.3607 35.7797 14.8544 34.3522 15.4126 32.9247C15.8526 33.7834 16.3141 34.642 16.8186 35.5007C17.323 36.3593 17.8382 37.1965 18.3641 38.0122ZM26.2958 15.6768C27.294 16.7072 28.2921 17.8556 29.2796 19.1114C28.3136 19.0685 27.3262 19.0363 26.328 19.0363C25.3191 19.0363 24.3209 19.0577 23.3442 19.1114C24.3102 17.8556 25.3084 16.7072 26.2958 15.6768ZM18.3534 21.9986C17.8275 22.825 17.3016 23.6729 16.8078 24.5423C16.3141 25.4009 15.8526 26.2596 15.4126 27.1182C14.833 25.68 14.3393 24.2418 13.9314 22.8465C15.3374 22.5137 16.8186 22.224 18.3534 21.9986ZM8.64005 35.4363C4.84058 33.8156 2.38272 31.6904 2.38272 30.0054C2.38272 28.3203 4.84058 26.1844 8.64005 24.5745C9.56309 24.1774 10.572 23.8232 11.6131 23.4904C12.2249 25.5941 13.0298 27.7836 14.028 30.0268C13.0406 32.2593 12.2463 34.4381 11.6453 36.531C10.5827 36.1983 9.57382 35.8334 8.64005 35.4363ZM14.4144 50.7737C12.9547 49.9365 12.3215 46.7488 12.8152 42.6488C12.9332 41.6399 13.1264 40.5773 13.3626 39.4933C15.4662 40.0085 17.7631 40.4056 20.178 40.6632C21.627 42.6488 23.1296 44.452 24.6429 46.0297C21.144 49.2818 17.8597 51.0635 15.6272 51.0635C15.1442 51.0527 14.7364 50.9561 14.4144 50.7737ZM39.873 42.5951C40.3775 46.6951 39.755 49.8828 38.306 50.7307C37.984 50.9239 37.5654 51.0098 37.0717 51.0098C34.85 51.0098 31.555 49.2389 28.056 46.0082C29.5586 44.4305 31.0612 42.6381 32.4887 40.6525C34.9144 40.3949 37.2112 39.9978 39.3149 39.4719C39.5618 40.5559 39.755 41.597 39.873 42.5951ZM44.0052 35.4363C43.0822 35.8334 42.0733 36.1876 41.0322 36.5203C40.4204 34.4166 39.6154 32.2271 38.6173 29.9839C39.6047 27.7514 40.3989 25.5726 41 23.4797C42.0625 23.8124 43.0714 24.1774 44.0159 24.5745C47.8154 26.1952 50.2733 28.3203 50.2733 30.0054C50.2625 31.6904 47.8047 33.8263 44.0052 35.4363Z"
                    fill="#61DAFB"
                  />
                  <path
                    d="M26.3173 34.9103C29.0263 34.9103 31.2223 32.7143 31.2223 30.0054C31.2223 27.2964 29.0263 25.1004 26.3173 25.1004C23.6084 25.1004 21.4124 27.2964 21.4124 30.0054C21.4124 32.7143 23.6084 34.9103 26.3173 34.9103Z"
                    fill="#61DAFB"
                  />
                </g>
                <defs>
                  <clipPath id="clip0_18_164">
                    <rect width="52.656" height="60" fill="white" />
                  </clipPath>
                </defs>
              </svg>