<svg width="68" height="40" viewBox="0 0 68 40" fill="none" xmlns="http://www.w3.org/2000/svg">
<g clip-path="url(#clip0_18_183)">
<path d="M34.0116 0C25.12 0 19.5631 4.44454 17.34 13.3328C20.6746 8.88824 24.5646 7.22216 29.01 8.33288C31.5466 8.96662 33.3595 10.807 35.3666 12.8433C38.6354 16.1604 42.4186 19.9996 50.6832 19.9996C59.5739 19.9996 65.1316 15.555 67.3539 6.66597C64.0201 11.1105 60.1301 12.7774 55.6839 11.6667C53.1481 11.033 51.3352 9.1926 49.3281 7.15629C46.0593 3.83915 42.2752 0 34.0116 0ZM17.34 19.9996C8.44921 19.9996 2.89146 24.4441 0.669189 33.3332C4.00301 28.8887 7.89302 27.2217 12.3392 28.3333C14.875 28.9679 16.6879 30.8074 18.695 32.8429C21.9638 36.16 25.7479 40 34.0116 40C42.9031 40 48.46 35.5555 50.6832 26.6664C47.3485 31.1109 43.4585 32.7778 39.0131 31.6663C36.4765 31.0334 34.6636 29.1922 32.6565 27.1567C29.3877 23.8396 25.6045 19.9996 17.34 19.9996Z" fill="#06B6D4"/>
</g>
<defs>
<clipPath id="clip0_18_183">
<rect width="66.7111" height="40" fill="white" transform="translate(0.656006)"/>
</clipPath>
</defs>
</svg>
