              <svg
                className="2xl:w-11 2xl:h-13
                xl:w-8 xl:h-10
                lg:w-8 lg:h-10
                md:w-7 md:h-7
                sm:w-6 sm:h-6
                w-6 h-6"
                width="51"
                height="50"
                viewBox="0 0 51 50"
                fill="none"
                xmlns="http://www.w3.org/2000/svg"
              >
                <g clip-path="url(#clip0_18_179)">
                  <path d="M0.827148 25V0H50.8271V50H0.827148" fill="#007ACC" />
                  <path
                    d="M11.7897 25.0875V27.125H18.2897V45.625H22.9022V27.125H29.4022V25.125C29.4022 24 29.4022 23.0875 29.3522 23.0625C29.3522 23.025 25.3897 23.0125 20.5772 23.0125L11.8272 23.05V25.1L11.7897 25.0875ZM41.0022 23C42.2772 23.3 43.2522 23.875 44.1272 24.7875C44.5897 25.2875 45.2772 26.1625 45.3272 26.3875C45.3272 26.4625 43.1647 27.925 41.8522 28.7375C41.8022 28.775 41.6022 28.5625 41.4022 28.2375C40.7522 27.3125 40.0897 26.9125 39.0522 26.8375C37.5522 26.7375 36.5522 27.525 36.5522 28.8375C36.5522 29.2375 36.6272 29.4625 36.7772 29.7875C37.1147 30.475 37.7397 30.8875 39.6772 31.7375C43.2522 33.275 44.8022 34.2875 45.7397 35.7375C46.8022 37.3625 47.0397 39.9125 46.3272 41.825C45.5272 43.9125 43.5772 45.325 40.7897 45.7875C39.9147 45.9375 37.9147 45.9125 36.9772 45.75C34.9772 45.375 33.0647 44.375 31.8897 43.0875C31.4272 42.5875 30.5397 41.25 30.5897 41.1625L31.0647 40.8625L32.9397 39.775L34.3522 38.95L34.6772 39.3875C35.0897 40.0375 36.0147 40.9125 36.5522 41.2125C38.1772 42.05 40.3522 41.9375 41.4272 40.9625C41.8897 40.5375 42.0897 40.0875 42.0897 39.4625C42.0897 38.8875 42.0022 38.625 41.7147 38.1875C41.3147 37.6375 40.5147 37.1875 38.2647 36.1875C35.6772 35.0875 34.5772 34.3875 33.5522 33.3125C32.9647 32.6625 32.4272 31.65 32.1772 30.8125C31.9897 30.0875 31.9272 28.3125 32.1022 27.6C32.6397 25.1 34.5272 23.35 37.2272 22.85C38.1022 22.675 40.1647 22.75 41.0272 22.975L41.0022 23Z"
                    fill="white"
                  />
                </g>
                <defs>
                  <clipPath id="clip0_18_179">
                    <rect
                      width="50"
                      height="50"
                      fill="white"
                      transform="translate(0.827148)"
                    />
                  </clipPath>
                </defs>
              </svg>