<svg width="33" height="33" viewBox="0 0 33 33" fill="none" xmlns="http://www.w3.org/2000/svg">
<path d="M16.4933 22.9306V19.4422" stroke="#FBFBFB" stroke-width="1.5" stroke-linecap="round" stroke-linejoin="round"/>
<path fill-rule="evenodd" clip-rule="evenodd" d="M25.0111 7.32901C27.3349 7.32901 29.2049 9.21276 29.2049 11.5365V16.2665C25.8224 18.2465 21.3536 19.4428 16.4861 19.4428C11.6186 19.4428 7.16361 18.2465 3.78111 16.2665V11.5228C3.78111 9.19901 5.66486 7.32901 7.98861 7.32901H25.0111Z" stroke="#FBFBFB" stroke-width="1.5" stroke-linecap="round" stroke-linejoin="round"/>
<path d="M21.3058 7.32298V6.81973C21.3058 5.14223 19.9445 3.78098 18.267 3.78098H14.7195C13.042 3.78098 11.6808 5.14223 11.6808 6.81973V7.32298" stroke="#FBFBFB" stroke-width="1.5" stroke-linecap="round" stroke-linejoin="round"/>
<path d="M3.8148 21.2891L4.07467 24.739C4.25067 27.0641 6.18805 28.8612 8.51867 28.8612H24.4673C26.7979 28.8612 28.7353 27.0641 28.9113 24.739L29.1712 21.2891" stroke="#FBFBFB" stroke-width="1.5" stroke-linecap="round" stroke-linejoin="round"/>
</svg>
