<svg width="1436" height="1024" viewBox="0 0 1436 1024" fill="none" xmlns="http://www.w3.org/2000/svg">
<g clip-path="url(#clip0_2_8)">
<mask id="mask0_2_8" style="mask-type:luminance" maskUnits="userSpaceOnUse" x="0" y="0" width="1440" height="1024">
<path d="M1440 0H0V1024H1440V0Z" fill="white"/>
</mask>
<g mask="url(#mask0_2_8)">
<path d="M1440 0H0V1024H1440V0Z" fill="#291B35"/>
<path d="M36 27.3067L24 40.96L36 27.3067Z" stroke="#8F8F8F"/>
<path d="M36 95.5733L24 109.227L36 95.5733Z" stroke="#8F8F8F"/>
<path d="M25 170.667C25 172.175 25.5268 173.622 26.4645 174.689C27.4021 175.756 28.6739 176.356 30 176.356C31.3261 176.356 32.5979 175.756 33.5355 174.689C34.4732 173.622 35 172.175 35 170.667C35 169.158 34.4732 167.711 33.5355 166.644C32.5979 165.577 31.3261 164.978 30 164.978C28.6739 164.978 27.4021 165.577 26.4645 166.644C25.5268 167.711 25 169.158 25 170.667V170.667Z" stroke="#8F8F8F"/>
<path d="M25 238.933C25 240.442 25.5268 241.889 26.4645 242.956C27.4021 244.023 28.6739 244.622 30 244.622C31.3261 244.622 32.5979 244.023 33.5355 242.956C34.4732 241.889 35 240.442 35 238.933C35 237.425 34.4732 235.978 33.5355 234.911C32.5979 233.844 31.3261 233.244 30 233.244C28.6739 233.244 27.4021 233.844 26.4645 234.911C25.5268 235.978 25 237.425 25 238.933V238.933Z" stroke="#8F8F8F"/>
<path d="M25 307.2C25 308.709 25.5268 310.156 26.4645 311.223C27.4021 312.29 28.6739 312.889 30 312.889C31.3261 312.889 32.5979 312.29 33.5355 311.223C34.4732 310.156 35 308.709 35 307.2C35 305.691 34.4732 304.244 33.5355 303.177C32.5979 302.11 31.3261 301.511 30 301.511C28.6739 301.511 27.4021 302.11 26.4645 303.177C25.5268 304.244 25 305.691 25 307.2V307.2Z" stroke="#8F8F8F"/>
<path d="M27 375.467C27 376.372 27.3161 377.24 27.8787 377.88C28.4413 378.52 29.2044 378.88 30 378.88C30.7956 378.88 31.5587 378.52 32.1213 377.88C32.6839 377.24 33 376.372 33 375.467C33 374.561 32.6839 373.693 32.1213 373.053C31.5587 372.413 30.7956 372.053 30 372.053C29.2044 372.053 28.4413 372.413 27.8787 373.053C27.3161 373.693 27 374.561 27 375.467V375.467Z" stroke="#8F8F8F"/>
<path d="M27 443.733C27 444.639 27.3161 445.507 27.8787 446.147C28.4413 446.787 29.2044 447.147 30 447.147C30.7956 447.147 31.5587 446.787 32.1213 446.147C32.6839 445.507 33 444.639 33 443.733C33 442.828 32.6839 441.96 32.1213 441.32C31.5587 440.68 30.7956 440.32 30 440.32C29.2044 440.32 28.4413 440.68 27.8787 441.32C27.3161 441.96 27 442.828 27 443.733V443.733Z" stroke="#8F8F8F"/>
<path d="M36 505.173L24 518.827L36 505.173Z" stroke="#8F8F8F"/>
<path d="M36 573.44L24 587.093L36 573.44Z" stroke="#8F8F8F"/>
<path d="M60 614.4L0 682.667L60 614.4Z" stroke="#8F8F8F" stroke-width="3"/>
<path d="M25 716.8C25 718.309 25.5268 719.756 26.4645 720.823C27.4021 721.89 28.6739 722.489 30 722.489C31.3261 722.489 32.5979 721.89 33.5355 720.823C34.4732 719.756 35 718.309 35 716.8C35 715.291 34.4732 713.844 33.5355 712.777C32.5979 711.71 31.3261 711.111 30 711.111C28.6739 711.111 27.4021 711.71 26.4645 712.777C25.5268 713.844 25 715.291 25 716.8V716.8Z" stroke="#8F8F8F"/>
<path d="M60 750.933L0 819.2L60 750.933Z" stroke="#8F8F8F" stroke-width="3"/>
<path d="M85 34.1333C85 35.6421 85.5268 37.0891 86.4645 38.156C87.4021 39.2229 88.6739 39.8222 90 39.8222C91.3261 39.8222 92.5979 39.2229 93.5355 38.156C94.4732 37.0891 95 35.6421 95 34.1333C95 32.6246 94.4732 31.1776 93.5355 30.1107C92.5979 29.0438 91.3261 28.4445 90 28.4445C88.6739 28.4445 87.4021 29.0438 86.4645 30.1107C85.5268 31.1776 85 32.6246 85 34.1333V34.1333Z" stroke="#8F8F8F"/>
<path d="M85 102.4C85 103.909 85.5268 105.356 86.4645 106.423C87.4021 107.49 88.6739 108.089 90 108.089C91.3261 108.089 92.5979 107.49 93.5355 106.423C94.4732 105.356 95 103.909 95 102.4C95 100.891 94.4732 99.4442 93.5355 98.3774C92.5979 97.3105 91.3261 96.7111 90 96.7111C88.6739 96.7111 87.4021 97.3105 86.4645 98.3774C85.5268 99.4442 85 100.891 85 102.4V102.4Z" stroke="#8F8F8F"/>
<path d="M96 163.84L84 177.493L96 163.84Z" stroke="#8F8F8F"/>
<path d="M96 232.107L84 245.76L96 232.107Z" stroke="#8F8F8F"/>
<path d="M85 307.2C85 308.709 85.5268 310.156 86.4645 311.223C87.4021 312.29 88.6739 312.889 90 312.889C91.3261 312.889 92.5979 312.29 93.5355 311.223C94.4732 310.156 95 308.709 95 307.2C95 305.691 94.4732 304.244 93.5355 303.177C92.5979 302.11 91.3261 301.511 90 301.511C88.6739 301.511 87.4021 302.11 86.4645 303.177C85.5268 304.244 85 305.691 85 307.2V307.2Z" stroke="#8F8F8F"/>
<path d="M92 373.191L88 377.742L92 373.191Z" stroke="#8F8F8F"/>
<path d="M87 443.733C87 444.639 87.3161 445.507 87.8787 446.147C88.4413 446.787 89.2044 447.147 90 447.147C90.7956 447.147 91.5587 446.787 92.1213 446.147C92.6839 445.507 93 444.639 93 443.733C93 442.828 92.6839 441.96 92.1213 441.32C91.5587 440.68 90.7956 440.32 90 440.32C89.2044 440.32 88.4413 440.68 87.8787 441.32C87.3161 441.96 87 442.828 87 443.733V443.733Z" stroke="#8F8F8F"/>
<path d="M92 509.724L88 514.276L92 509.724Z" stroke="#8F8F8F"/>
<path d="M92 577.991L88 582.542L92 577.991Z" stroke="#8F8F8F"/>
<path d="M92 646.258L88 650.809L92 646.258Z" stroke="#8F8F8F"/>
<path d="M96 709.973L84 723.627L96 709.973Z" stroke="#8F8F8F"/>
<path d="M87 785.067C87 785.972 87.3161 786.84 87.8787 787.48C88.4413 788.12 89.2044 788.48 90 788.48C90.7956 788.48 91.5587 788.12 92.1213 787.48C92.6839 786.84 93 785.972 93 785.067C93 784.161 92.6839 783.293 92.1213 782.653C91.5587 782.013 90.7956 781.653 90 781.653C89.2044 781.653 88.4413 782.013 87.8787 782.653C87.3161 783.293 87 784.161 87 785.067V785.067Z" stroke="#8F8F8F"/>
<path d="M156 27.3067L144 40.96L156 27.3067Z" stroke="#8F8F8F"/>
<path d="M180 68.2667L120 136.533L180 68.2667Z" stroke="#8F8F8F" stroke-width="3"/>
<path d="M149 170.667C149 170.968 149.105 171.258 149.293 171.471C149.48 171.685 149.735 171.804 150 171.804C150.265 171.804 150.52 171.685 150.707 171.471C150.895 171.258 151 170.968 151 170.667C151 170.365 150.895 170.075 150.707 169.862C150.52 169.649 150.265 169.529 150 169.529C149.735 169.529 149.48 169.649 149.293 169.862C149.105 170.075 149 170.365 149 170.667V170.667Z" stroke="#8F8F8F"/>
<path d="M156 232.107L144 245.76L156 232.107Z" stroke="#8F8F8F"/>
<path d="M147 307.2C147 308.105 147.316 308.973 147.879 309.614C148.441 310.254 149.204 310.613 150 310.613C150.796 310.613 151.559 310.254 152.121 309.614C152.684 308.973 153 308.105 153 307.2C153 306.295 152.684 305.427 152.121 304.786C151.559 304.146 150.796 303.787 150 303.787C149.204 303.787 148.441 304.146 147.879 304.786C147.316 305.427 147 306.295 147 307.2V307.2Z" stroke="#8F8F8F"/>
<path d="M145 375.467C145 376.975 145.527 378.422 146.464 379.489C147.402 380.556 148.674 381.156 150 381.156C151.326 381.156 152.598 380.556 153.536 379.489C154.473 378.422 155 376.975 155 375.467C155 373.958 154.473 372.511 153.536 371.444C152.598 370.377 151.326 369.778 150 369.778C148.674 369.778 147.402 370.377 146.464 371.444C145.527 372.511 145 373.958 145 375.467V375.467Z" stroke="#8F8F8F"/>
<path d="M156 436.907L144 450.56L156 436.907Z" stroke="#8F8F8F"/>
<path d="M156 505.173L144 518.827L156 505.173Z" stroke="#8F8F8F"/>
<path d="M149 580.267C149 580.568 149.105 580.858 149.293 581.071C149.48 581.285 149.735 581.404 150 581.404C150.265 581.404 150.52 581.285 150.707 581.071C150.895 580.858 151 580.568 151 580.267C151 579.965 150.895 579.675 150.707 579.462C150.52 579.249 150.265 579.129 150 579.129C149.735 579.129 149.48 579.249 149.293 579.462C149.105 579.675 149 579.965 149 580.267V580.267Z" stroke="#8F8F8F"/>
<path d="M156 641.707L144 655.36L156 641.707Z" stroke="#8F8F8F"/>
<path d="M180 682.667L120 750.933L180 682.667Z" stroke="#8F8F8F" stroke-width="3"/>
<path d="M147 785.067C147 785.972 147.316 786.84 147.879 787.48C148.441 788.12 149.204 788.48 150 788.48C150.796 788.48 151.559 788.12 152.121 787.48C152.684 786.84 153 785.972 153 785.067C153 784.161 152.684 783.293 152.121 782.653C151.559 782.013 150.796 781.653 150 781.653C149.204 781.653 148.441 782.013 147.879 782.653C147.316 783.293 147 784.161 147 785.067V785.067Z" stroke="#8F8F8F"/>
<path d="M212 31.8578L208 36.4089L212 31.8578Z" stroke="#8F8F8F"/>
<path d="M216 95.5733L204 109.227L216 95.5733Z" stroke="#8F8F8F"/>
<path d="M205 170.667C205 172.175 205.527 173.622 206.464 174.689C207.402 175.756 208.674 176.356 210 176.356C211.326 176.356 212.598 175.756 213.536 174.689C214.473 173.622 215 172.175 215 170.667C215 169.158 214.473 167.711 213.536 166.644C212.598 165.577 211.326 164.978 210 164.978C208.674 164.978 207.402 165.577 206.464 166.644C205.527 167.711 205 169.158 205 170.667V170.667Z" stroke="#8F8F8F"/>
<path d="M205 238.933C205 240.442 205.527 241.889 206.464 242.956C207.402 244.023 208.674 244.622 210 244.622C211.326 244.622 212.598 244.023 213.536 242.956C214.473 241.889 215 240.442 215 238.933C215 237.425 214.473 235.978 213.536 234.911C212.598 233.844 211.326 233.244 210 233.244C208.674 233.244 207.402 233.844 206.464 234.911C205.527 235.978 205 237.425 205 238.933V238.933Z" stroke="#8F8F8F"/>
<path d="M216 300.373L204 314.027L216 300.373Z" stroke="#8F8F8F"/>
<path d="M209 375.467C209 375.768 209.105 376.058 209.293 376.271C209.48 376.485 209.735 376.604 210 376.604C210.265 376.604 210.52 376.485 210.707 376.271C210.895 376.058 211 375.768 211 375.467C211 375.165 210.895 374.876 210.707 374.662C210.52 374.449 210.265 374.329 210 374.329C209.735 374.329 209.48 374.449 209.293 374.662C209.105 374.876 209 375.165 209 375.467V375.467Z" stroke="#8F8F8F"/>
<path d="M209 443.733C209 444.035 209.105 444.324 209.293 444.538C209.48 444.751 209.735 444.871 210 444.871C210.265 444.871 210.52 444.751 210.707 444.538C210.895 444.324 211 444.035 211 443.733C211 443.432 210.895 443.142 210.707 442.929C210.52 442.715 210.265 442.596 210 442.596C209.735 442.596 209.48 442.715 209.293 442.929C209.105 443.142 209 443.432 209 443.733V443.733Z" stroke="#8F8F8F"/>
<path d="M216 505.173L204 518.827L216 505.173Z" stroke="#8F8F8F"/>
<path d="M216 573.44L204 587.093L216 573.44Z" stroke="#8F8F8F"/>
<path d="M212 646.258L208 650.809L212 646.258Z" stroke="#8F8F8F"/>
<path d="M216 709.973L204 723.627L216 709.973Z" stroke="#8F8F8F"/>
<path d="M209 785.067C209 785.368 209.105 785.658 209.293 785.871C209.48 786.085 209.735 786.204 210 786.204C210.265 786.204 210.52 786.085 210.707 785.871C210.895 785.658 211 785.368 211 785.067C211 784.765 210.895 784.476 210.707 784.262C210.52 784.049 210.265 783.929 210 783.929C209.735 783.929 209.48 784.049 209.293 784.262C209.105 784.476 209 784.765 209 785.067V785.067Z" stroke="#8F8F8F"/>
<path d="M265 34.1333C265 35.6421 265.527 37.0891 266.464 38.156C267.402 39.2229 268.674 39.8222 270 39.8222C271.326 39.8222 272.598 39.2229 273.536 38.156C274.473 37.0891 275 35.6421 275 34.1333C275 32.6246 274.473 31.1776 273.536 30.1107C272.598 29.0438 271.326 28.4445 270 28.4445C268.674 28.4445 267.402 29.0438 266.464 30.1107C265.527 31.1776 265 32.6246 265 34.1333V34.1333Z" stroke="#8F8F8F"/>
<path d="M269 102.4C269 102.702 269.105 102.991 269.293 103.205C269.48 103.418 269.735 103.538 270 103.538C270.265 103.538 270.52 103.418 270.707 103.205C270.895 102.991 271 102.702 271 102.4C271 102.098 270.895 101.809 270.707 101.595C270.52 101.382 270.265 101.262 270 101.262C269.735 101.262 269.48 101.382 269.293 101.595C269.105 101.809 269 102.098 269 102.4V102.4Z" stroke="#8F8F8F"/>
<path d="M265 170.667C265 172.175 265.527 173.622 266.464 174.689C267.402 175.756 268.674 176.356 270 176.356C271.326 176.356 272.598 175.756 273.536 174.689C274.473 173.622 275 172.175 275 170.667C275 169.158 274.473 167.711 273.536 166.644C272.598 165.577 271.326 164.978 270 164.978C268.674 164.978 267.402 165.577 266.464 166.644C265.527 167.711 265 169.158 265 170.667V170.667Z" stroke="#8F8F8F"/>
<path d="M272 236.658L268 241.209L272 236.658Z" stroke="#8F8F8F"/>
<path d="M265 307.2C265 308.709 265.527 310.156 266.464 311.223C267.402 312.29 268.674 312.889 270 312.889C271.326 312.889 272.598 312.29 273.536 311.223C274.473 310.156 275 308.709 275 307.2C275 305.691 274.473 304.244 273.536 303.177C272.598 302.11 271.326 301.511 270 301.511C268.674 301.511 267.402 302.11 266.464 303.177C265.527 304.244 265 305.691 265 307.2V307.2Z" stroke="#8F8F8F"/>
<path d="M272 373.191L268 377.742L272 373.191Z" stroke="#8F8F8F"/>
<path d="M265 443.733C265 445.242 265.527 446.689 266.464 447.756C267.402 448.823 268.674 449.422 270 449.422C271.326 449.422 272.598 448.823 273.536 447.756C274.473 446.689 275 445.242 275 443.733C275 442.225 274.473 440.778 273.536 439.711C272.598 438.644 271.326 438.044 270 438.044C268.674 438.044 267.402 438.644 266.464 439.711C265.527 440.778 265 442.225 265 443.733V443.733Z" stroke="#8F8F8F"/>
<path d="M276 505.173L264 518.827L276 505.173Z" stroke="#8F8F8F"/>
<path d="M265 580.267C265 581.775 265.527 583.222 266.464 584.289C267.402 585.356 268.674 585.956 270 585.956C271.326 585.956 272.598 585.356 273.536 584.289C274.473 583.222 275 581.775 275 580.267C275 578.758 274.473 577.311 273.536 576.244C272.598 575.177 271.326 574.578 270 574.578C268.674 574.578 267.402 575.177 266.464 576.244C265.527 577.311 265 578.758 265 580.267V580.267Z" stroke="#8F8F8F"/>
<path d="M276 641.707L264 655.36L276 641.707Z" stroke="#8F8F8F"/>
<path d="M267 716.8C267 717.705 267.316 718.573 267.879 719.214C268.441 719.854 269.204 720.213 270 720.213C270.796 720.213 271.559 719.854 272.121 719.214C272.684 718.573 273 717.705 273 716.8C273 715.895 272.684 715.026 272.121 714.386C271.559 713.746 270.796 713.387 270 713.387C269.204 713.387 268.441 713.746 267.879 714.386C267.316 715.026 267 715.895 267 716.8V716.8Z" stroke="#8F8F8F"/>
<path d="M300 750.933L240 819.2L300 750.933Z" stroke="#8F8F8F" stroke-width="3"/>
<path d="M332 31.8578L328 36.4089L332 31.8578Z" stroke="#8F8F8F"/>
<path d="M325 102.4C325 103.909 325.527 105.356 326.464 106.423C327.402 107.49 328.674 108.089 330 108.089C331.326 108.089 332.598 107.49 333.536 106.423C334.473 105.356 335 103.909 335 102.4C335 100.891 334.473 99.4442 333.536 98.3774C332.598 97.3105 331.326 96.7111 330 96.7111C328.674 96.7111 327.402 97.3105 326.464 98.3774C325.527 99.4442 325 100.891 325 102.4V102.4Z" stroke="#8F8F8F"/>
<path d="M336 163.84L324 177.493L336 163.84Z" stroke="#8F8F8F"/>
<path d="M336 232.107L324 245.76L336 232.107Z" stroke="#8F8F8F"/>
<path d="M360 273.067L300 341.333L360 273.067Z" stroke="#8F8F8F" stroke-width="3"/>
<path d="M325 375.467C325 376.975 325.527 378.422 326.464 379.489C327.402 380.556 328.674 381.156 330 381.156C331.326 381.156 332.598 380.556 333.536 379.489C334.473 378.422 335 376.975 335 375.467C335 373.958 334.473 372.511 333.536 371.444C332.598 370.377 331.326 369.778 330 369.778C328.674 369.778 327.402 370.377 326.464 371.444C325.527 372.511 325 373.958 325 375.467V375.467Z" stroke="#8F8F8F"/>
<path d="M325 443.733C325 445.242 325.527 446.689 326.464 447.756C327.402 448.823 328.674 449.422 330 449.422C331.326 449.422 332.598 448.823 333.536 447.756C334.473 446.689 335 445.242 335 443.733C335 442.225 334.473 440.778 333.536 439.711C332.598 438.644 331.326 438.044 330 438.044C328.674 438.044 327.402 438.644 326.464 439.711C325.527 440.778 325 442.225 325 443.733V443.733Z" stroke="#8F8F8F"/>
<path d="M332 509.724L328 514.276L332 509.724Z" stroke="#8F8F8F"/>
<path d="M325 580.267C325 581.775 325.527 583.222 326.464 584.289C327.402 585.356 328.674 585.956 330 585.956C331.326 585.956 332.598 585.356 333.536 584.289C334.473 583.222 335 581.775 335 580.267C335 578.758 334.473 577.311 333.536 576.244C332.598 575.177 331.326 574.578 330 574.578C328.674 574.578 327.402 575.177 326.464 576.244C325.527 577.311 325 578.758 325 580.267V580.267Z" stroke="#8F8F8F"/>
<path d="M336 641.707L324 655.36L336 641.707Z" stroke="#8F8F8F"/>
<path d="M325 716.8C325 718.309 325.527 719.756 326.464 720.823C327.402 721.89 328.674 722.489 330 722.489C331.326 722.489 332.598 721.89 333.536 720.823C334.473 719.756 335 718.309 335 716.8C335 715.291 334.473 713.844 333.536 712.777C332.598 711.71 331.326 711.111 330 711.111C328.674 711.111 327.402 711.71 326.464 712.777C325.527 713.844 325 715.291 325 716.8V716.8Z" stroke="#8F8F8F"/>
<path d="M325 785.067C325 786.575 325.527 788.022 326.464 789.089C327.402 790.156 328.674 790.756 330 790.756C331.326 790.756 332.598 790.156 333.536 789.089C334.473 788.022 335 786.575 335 785.067C335 783.558 334.473 782.111 333.536 781.044C332.598 779.977 331.326 779.378 330 779.378C328.674 779.378 327.402 779.977 326.464 781.044C325.527 782.111 325 783.558 325 785.067V785.067Z" stroke="#8F8F8F"/>
<path d="M385 34.1333C385 35.6421 385.527 37.0891 386.464 38.156C387.402 39.2229 388.674 39.8222 390 39.8222C391.326 39.8222 392.598 39.2229 393.536 38.156C394.473 37.0891 395 35.6421 395 34.1333C395 32.6246 394.473 31.1776 393.536 30.1107C392.598 29.0438 391.326 28.4445 390 28.4445C388.674 28.4445 387.402 29.0438 386.464 30.1107C385.527 31.1776 385 32.6246 385 34.1333V34.1333Z" stroke="#8F8F8F"/>
<path d="M392 100.124L388 104.676L392 100.124Z" stroke="#8F8F8F"/>
<path d="M392 168.391L388 172.942L392 168.391Z" stroke="#8F8F8F"/>
<path d="M392 236.658L388 241.209L392 236.658Z" stroke="#8F8F8F"/>
<path d="M385 307.2C385 308.709 385.527 310.156 386.464 311.223C387.402 312.29 388.674 312.889 390 312.889C391.326 312.889 392.598 312.29 393.536 311.223C394.473 310.156 395 308.709 395 307.2C395 305.691 394.473 304.244 393.536 303.177C392.598 302.11 391.326 301.511 390 301.511C388.674 301.511 387.402 302.11 386.464 303.177C385.527 304.244 385 305.691 385 307.2V307.2Z" stroke="#8F8F8F"/>
<path d="M396 368.64L384 382.293L396 368.64Z" stroke="#8F8F8F"/>
<path d="M396 436.907L384 450.56L396 436.907Z" stroke="#8F8F8F"/>
<path d="M385 512C385 513.509 385.527 514.956 386.464 516.023C387.402 517.09 388.674 517.689 390 517.689C391.326 517.689 392.598 517.09 393.536 516.023C394.473 514.956 395 513.509 395 512C395 510.491 394.473 509.044 393.536 507.977C392.598 506.91 391.326 506.311 390 506.311C388.674 506.311 387.402 506.91 386.464 507.977C385.527 509.044 385 510.491 385 512V512Z" stroke="#8F8F8F"/>
<path d="M387 580.267C387 581.172 387.316 582.04 387.879 582.68C388.441 583.32 389.204 583.68 390 583.68C390.796 583.68 391.559 583.32 392.121 582.68C392.684 582.04 393 581.172 393 580.267C393 579.361 392.684 578.493 392.121 577.853C391.559 577.213 390.796 576.853 390 576.853C389.204 576.853 388.441 577.213 387.879 577.853C387.316 578.493 387 579.361 387 580.267V580.267Z" stroke="#8F8F8F"/>
<path d="M385 648.533C385 650.042 385.527 651.489 386.464 652.556C387.402 653.623 388.674 654.222 390 654.222C391.326 654.222 392.598 653.623 393.536 652.556C394.473 651.489 395 650.042 395 648.533C395 647.025 394.473 645.578 393.536 644.511C392.598 643.444 391.326 642.844 390 642.844C388.674 642.844 387.402 643.444 386.464 644.511C385.527 645.578 385 647.025 385 648.533V648.533Z" stroke="#8F8F8F"/>
<path d="M392 714.524L388 719.076L392 714.524Z" stroke="#8F8F8F"/>
<path d="M396 778.24L384 791.893L396 778.24Z" stroke="#8F8F8F"/>
<path d="M445 34.1333C445 35.6421 445.527 37.0891 446.464 38.156C447.402 39.2229 448.674 39.8222 450 39.8222C451.326 39.8222 452.598 39.2229 453.536 38.156C454.473 37.0891 455 35.6421 455 34.1333C455 32.6246 454.473 31.1776 453.536 30.1107C452.598 29.0438 451.326 28.4445 450 28.4445C448.674 28.4445 447.402 29.0438 446.464 30.1107C445.527 31.1776 445 32.6246 445 34.1333V34.1333Z" stroke="#8F8F8F"/>
<path d="M452 100.124L448 104.676L452 100.124Z" stroke="#8F8F8F"/>
<path d="M456 163.84L444 177.493L456 163.84Z" stroke="#8F8F8F"/>
<path d="M456 232.107L444 245.76L456 232.107Z" stroke="#8F8F8F"/>
<path d="M445 307.2C445 308.709 445.527 310.156 446.464 311.223C447.402 312.29 448.674 312.889 450 312.889C451.326 312.889 452.598 312.29 453.536 311.223C454.473 310.156 455 308.709 455 307.2C455 305.691 454.473 304.244 453.536 303.177C452.598 302.11 451.326 301.511 450 301.511C448.674 301.511 447.402 302.11 446.464 303.177C445.527 304.244 445 305.691 445 307.2V307.2Z" stroke="#8F8F8F"/>
<path d="M456 368.64L444 382.293L456 368.64Z" stroke="#8F8F8F"/>
<path d="M456 436.907L444 450.56L456 436.907Z" stroke="#8F8F8F"/>
<path d="M447 512C447 512.905 447.316 513.773 447.879 514.414C448.441 515.054 449.204 515.413 450 515.413C450.796 515.413 451.559 515.054 452.121 514.414C452.684 513.773 453 512.905 453 512C453 511.095 452.684 510.227 452.121 509.586C451.559 508.946 450.796 508.587 450 508.587C449.204 508.587 448.441 508.946 447.879 509.586C447.316 510.227 447 511.095 447 512V512Z" stroke="#8F8F8F"/>
<path d="M456 573.44L444 587.093L456 573.44Z" stroke="#8F8F8F"/>
<path d="M456 641.707L444 655.36L456 641.707Z" stroke="#8F8F8F"/>
<path d="M445 716.8C445 718.309 445.527 719.756 446.464 720.823C447.402 721.89 448.674 722.489 450 722.489C451.326 722.489 452.598 721.89 453.536 720.823C454.473 719.756 455 718.309 455 716.8C455 715.291 454.473 713.844 453.536 712.777C452.598 711.71 451.326 711.111 450 711.111C448.674 711.111 447.402 711.71 446.464 712.777C445.527 713.844 445 715.291 445 716.8V716.8Z" stroke="#8F8F8F"/>
<path d="M456 778.24L444 791.893L456 778.24Z" stroke="#8F8F8F"/>
<path d="M516 27.3067L504 40.96L516 27.3067Z" stroke="#8F8F8F"/>
<path d="M516 95.5733L504 109.227L516 95.5733Z" stroke="#8F8F8F"/>
<path d="M512 168.391L508 172.942L512 168.391Z" stroke="#8F8F8F"/>
<path d="M507 238.933C507 239.839 507.316 240.707 507.879 241.347C508.441 241.987 509.204 242.347 510 242.347C510.796 242.347 511.559 241.987 512.121 241.347C512.684 240.707 513 239.839 513 238.933C513 238.028 512.684 237.16 512.121 236.52C511.559 235.88 510.796 235.52 510 235.52C509.204 235.52 508.441 235.88 507.879 236.52C507.316 237.16 507 238.028 507 238.933V238.933Z" stroke="#8F8F8F"/>
<path d="M512 304.924L508 309.476L512 304.924Z" stroke="#8F8F8F"/>
<path d="M509 375.467C509 375.768 509.105 376.058 509.293 376.271C509.48 376.485 509.735 376.604 510 376.604C510.265 376.604 510.52 376.485 510.707 376.271C510.895 376.058 511 375.768 511 375.467C511 375.165 510.895 374.876 510.707 374.662C510.52 374.449 510.265 374.329 510 374.329C509.735 374.329 509.48 374.449 509.293 374.662C509.105 374.876 509 375.165 509 375.467V375.467Z" stroke="#8F8F8F"/>
<path d="M512 441.458L508 446.009L512 441.458Z" stroke="#8F8F8F"/>
<path d="M516 505.173L504 518.827L516 505.173Z" stroke="#8F8F8F"/>
<path d="M505 580.267C505 581.775 505.527 583.222 506.464 584.289C507.402 585.356 508.674 585.956 510 585.956C511.326 585.956 512.598 585.356 513.536 584.289C514.473 583.222 515 581.775 515 580.267C515 578.758 514.473 577.311 513.536 576.244C512.598 575.177 511.326 574.578 510 574.578C508.674 574.578 507.402 575.177 506.464 576.244C505.527 577.311 505 578.758 505 580.267V580.267Z" stroke="#8F8F8F"/>
<path d="M516 641.707L504 655.36L516 641.707Z" stroke="#8F8F8F"/>
<path d="M516 709.973L504 723.627L516 709.973Z" stroke="#8F8F8F"/>
<path d="M505 785.067C505 786.575 505.527 788.022 506.464 789.089C507.402 790.156 508.674 790.756 510 790.756C511.326 790.756 512.598 790.156 513.536 789.089C514.473 788.022 515 786.575 515 785.067C515 783.558 514.473 782.111 513.536 781.044C512.598 779.977 511.326 779.378 510 779.378C508.674 779.378 507.402 779.977 506.464 781.044C505.527 782.111 505 783.558 505 785.067V785.067Z" stroke="#8F8F8F"/>
<path d="M565 34.1333C565 35.6421 565.527 37.0891 566.464 38.156C567.402 39.2229 568.674 39.8222 570 39.8222C571.326 39.8222 572.598 39.2229 573.536 38.156C574.473 37.0891 575 35.6421 575 34.1333C575 32.6246 574.473 31.1776 573.536 30.1107C572.598 29.0438 571.326 28.4445 570 28.4445C568.674 28.4445 567.402 29.0438 566.464 30.1107C565.527 31.1776 565 32.6246 565 34.1333V34.1333Z" stroke="#8F8F8F"/>
<path d="M567 102.4C567 103.305 567.316 104.173 567.879 104.814C568.441 105.454 569.204 105.813 570 105.813C570.796 105.813 571.559 105.454 572.121 104.814C572.684 104.173 573 103.305 573 102.4C573 101.495 572.684 100.627 572.121 99.9864C571.559 99.3463 570.796 98.9867 570 98.9867C569.204 98.9867 568.441 99.3463 567.879 99.9864C567.316 100.627 567 101.495 567 102.4V102.4Z" stroke="#8F8F8F"/>
<path d="M565 170.667C565 172.175 565.527 173.622 566.464 174.689C567.402 175.756 568.674 176.356 570 176.356C571.326 176.356 572.598 175.756 573.536 174.689C574.473 173.622 575 172.175 575 170.667C575 169.158 574.473 167.711 573.536 166.644C572.598 165.577 571.326 164.978 570 164.978C568.674 164.978 567.402 165.577 566.464 166.644C565.527 167.711 565 169.158 565 170.667V170.667Z" stroke="#8F8F8F"/>
<path d="M572 236.658L568 241.209L572 236.658Z" stroke="#8F8F8F"/>
<path d="M565 307.2C565 308.709 565.527 310.156 566.464 311.223C567.402 312.29 568.674 312.889 570 312.889C571.326 312.889 572.598 312.29 573.536 311.223C574.473 310.156 575 308.709 575 307.2C575 305.691 574.473 304.244 573.536 303.177C572.598 302.11 571.326 301.511 570 301.511C568.674 301.511 567.402 302.11 566.464 303.177C565.527 304.244 565 305.691 565 307.2V307.2Z" stroke="#8F8F8F"/>
<path d="M576 368.64L564 382.293L576 368.64Z" stroke="#8F8F8F"/>
<path d="M600 409.6L540 477.867L600 409.6Z" stroke="#8F8F8F" stroke-width="3"/>
<path d="M569 512C569 512.302 569.105 512.591 569.293 512.805C569.48 513.018 569.735 513.138 570 513.138C570.265 513.138 570.52 513.018 570.707 512.805C570.895 512.591 571 512.302 571 512C571 511.698 570.895 511.409 570.707 511.195C570.52 510.982 570.265 510.862 570 510.862C569.735 510.862 569.48 510.982 569.293 511.195C569.105 511.409 569 511.698 569 512V512Z" stroke="#8F8F8F"/>
<path d="M600 546.133L540 614.4L600 546.133Z" stroke="#8F8F8F" stroke-width="3"/>
<path d="M572 646.258L568 650.809L572 646.258Z" stroke="#8F8F8F"/>
<path d="M576 709.973L564 723.627L576 709.973Z" stroke="#8F8F8F"/>
<path d="M565 785.067C565 786.575 565.527 788.022 566.464 789.089C567.402 790.156 568.674 790.756 570 790.756C571.326 790.756 572.598 790.156 573.536 789.089C574.473 788.022 575 786.575 575 785.067C575 783.558 574.473 782.111 573.536 781.044C572.598 779.977 571.326 779.378 570 779.378C568.674 779.378 567.402 779.977 566.464 781.044C565.527 782.111 565 783.558 565 785.067V785.067Z" stroke="#8F8F8F"/>
<path d="M625 34.1333C625 35.6421 625.527 37.0891 626.464 38.156C627.402 39.2229 628.674 39.8222 630 39.8222C631.326 39.8222 632.598 39.2229 633.536 38.156C634.473 37.0891 635 35.6421 635 34.1333C635 32.6246 634.473 31.1776 633.536 30.1107C632.598 29.0438 631.326 28.4445 630 28.4445C628.674 28.4445 627.402 29.0438 626.464 30.1107C625.527 31.1776 625 32.6246 625 34.1333V34.1333Z" stroke="#8F8F8F"/>
<path d="M636 95.5733L624 109.227L636 95.5733Z" stroke="#8F8F8F"/>
<path d="M627 170.667C627 171.572 627.316 172.44 627.879 173.08C628.441 173.72 629.204 174.08 630 174.08C630.796 174.08 631.559 173.72 632.121 173.08C632.684 172.44 633 171.572 633 170.667C633 169.761 632.684 168.893 632.121 168.253C631.559 167.613 630.796 167.253 630 167.253C629.204 167.253 628.441 167.613 627.879 168.253C627.316 168.893 627 169.761 627 170.667V170.667Z" stroke="#8F8F8F"/>
<path d="M625 238.933C625 240.442 625.527 241.889 626.464 242.956C627.402 244.023 628.674 244.622 630 244.622C631.326 244.622 632.598 244.023 633.536 242.956C634.473 241.889 635 240.442 635 238.933C635 237.425 634.473 235.978 633.536 234.911C632.598 233.844 631.326 233.244 630 233.244C628.674 233.244 627.402 233.844 626.464 234.911C625.527 235.978 625 237.425 625 238.933V238.933Z" stroke="#8F8F8F"/>
<path d="M636 300.373L624 314.027L636 300.373Z" stroke="#8F8F8F"/>
<path d="M636 368.64L624 382.293L636 368.64Z" stroke="#8F8F8F"/>
<path d="M636 436.907L624 450.56L636 436.907Z" stroke="#8F8F8F"/>
<path d="M636 505.173L624 518.827L636 505.173Z" stroke="#8F8F8F"/>
<path d="M625 580.267C625 581.775 625.527 583.222 626.464 584.289C627.402 585.356 628.674 585.956 630 585.956C631.326 585.956 632.598 585.356 633.536 584.289C634.473 583.222 635 581.775 635 580.267C635 578.758 634.473 577.311 633.536 576.244C632.598 575.177 631.326 574.578 630 574.578C628.674 574.578 627.402 575.177 626.464 576.244C625.527 577.311 625 578.758 625 580.267V580.267Z" stroke="#8F8F8F"/>
<path d="M625 648.533C625 650.042 625.527 651.489 626.464 652.556C627.402 653.623 628.674 654.222 630 654.222C631.326 654.222 632.598 653.623 633.536 652.556C634.473 651.489 635 650.042 635 648.533C635 647.025 634.473 645.578 633.536 644.511C632.598 643.444 631.326 642.844 630 642.844C628.674 642.844 627.402 643.444 626.464 644.511C625.527 645.578 625 647.025 625 648.533V648.533Z" stroke="#8F8F8F"/>
<path d="M629 716.8C629 717.102 629.105 717.391 629.293 717.605C629.48 717.818 629.735 717.938 630 717.938C630.265 717.938 630.52 717.818 630.707 717.605C630.895 717.391 631 717.102 631 716.8C631 716.498 630.895 716.209 630.707 715.995C630.52 715.782 630.265 715.662 630 715.662C629.735 715.662 629.48 715.782 629.293 715.995C629.105 716.209 629 716.498 629 716.8V716.8Z" stroke="#8F8F8F"/>
<path d="M636 778.24L624 791.893L636 778.24Z" stroke="#8F8F8F"/>
<path d="M685 34.1333C685 35.6421 685.527 37.0891 686.464 38.156C687.402 39.2229 688.674 39.8222 690 39.8222C691.326 39.8222 692.598 39.2229 693.536 38.156C694.473 37.0891 695 35.6421 695 34.1333C695 32.6246 694.473 31.1776 693.536 30.1107C692.598 29.0438 691.326 28.4445 690 28.4445C688.674 28.4445 687.402 29.0438 686.464 30.1107C685.527 31.1776 685 32.6246 685 34.1333V34.1333Z" stroke="#8F8F8F"/>
<path d="M696 95.5733L684 109.227L696 95.5733Z" stroke="#8F8F8F"/>
<path d="M696 163.84L684 177.493L696 163.84Z" stroke="#8F8F8F"/>
<path d="M696 232.107L684 245.76L696 232.107Z" stroke="#8F8F8F"/>
<path d="M685 307.2C685 308.709 685.527 310.156 686.464 311.223C687.402 312.29 688.674 312.889 690 312.889C691.326 312.889 692.598 312.29 693.536 311.223C694.473 310.156 695 308.709 695 307.2C695 305.691 694.473 304.244 693.536 303.177C692.598 302.11 691.326 301.511 690 301.511C688.674 301.511 687.402 302.11 686.464 303.177C685.527 304.244 685 305.691 685 307.2V307.2Z" stroke="#8F8F8F"/>
<path d="M685 375.467C685 376.975 685.527 378.422 686.464 379.489C687.402 380.556 688.674 381.156 690 381.156C691.326 381.156 692.598 380.556 693.536 379.489C694.473 378.422 695 376.975 695 375.467C695 373.958 694.473 372.511 693.536 371.444C692.598 370.377 691.326 369.778 690 369.778C688.674 369.778 687.402 370.377 686.464 371.444C685.527 372.511 685 373.958 685 375.467V375.467Z" stroke="#8F8F8F"/>
<path d="M692 441.458L688 446.009L692 441.458Z" stroke="#8F8F8F"/>
<path d="M696 505.173L684 518.827L696 505.173Z" stroke="#8F8F8F"/>
<path d="M692 577.991L688 582.542L692 577.991Z" stroke="#8F8F8F"/>
<path d="M685 648.533C685 650.042 685.527 651.489 686.464 652.556C687.402 653.623 688.674 654.222 690 654.222C691.326 654.222 692.598 653.623 693.536 652.556C694.473 651.489 695 650.042 695 648.533C695 647.025 694.473 645.578 693.536 644.511C692.598 643.444 691.326 642.844 690 642.844C688.674 642.844 687.402 643.444 686.464 644.511C685.527 645.578 685 647.025 685 648.533V648.533Z" stroke="#8F8F8F"/>
<path d="M687 716.8C687 717.705 687.316 718.573 687.879 719.214C688.441 719.854 689.204 720.213 690 720.213C690.796 720.213 691.559 719.854 692.121 719.214C692.684 718.573 693 717.705 693 716.8C693 715.895 692.684 715.026 692.121 714.386C691.559 713.746 690.796 713.387 690 713.387C689.204 713.387 688.441 713.746 687.879 714.386C687.316 715.026 687 715.895 687 716.8V716.8Z" stroke="#8F8F8F"/>
<path d="M696 778.24L684 791.893L696 778.24Z" stroke="#8F8F8F"/>
<path d="M36 846.507L24 860.16L36 846.507Z" stroke="#8F8F8F"/>
<path d="M36 914.773L24 928.427L36 914.773Z" stroke="#8F8F8F"/>
<path d="M25 989.867C25 991.375 25.5268 992.822 26.4645 993.889C27.4021 994.956 28.6739 995.556 30 995.556C31.3261 995.556 32.5979 994.956 33.5355 993.889C34.4732 992.822 35 991.375 35 989.867C35 988.358 34.4732 986.911 33.5355 985.844C32.5979 984.777 31.3261 984.178 30 984.178C28.6739 984.178 27.4021 984.777 26.4645 985.844C25.5268 986.911 25 988.358 25 989.867V989.867Z" stroke="#8F8F8F"/>
<path d="M85 853.333C85 854.842 85.5268 856.289 86.4645 857.356C87.4021 858.423 88.6739 859.022 90 859.022C91.3261 859.022 92.5979 858.423 93.5355 857.356C94.4732 856.289 95 854.842 95 853.333C95 851.825 94.4732 850.378 93.5355 849.311C92.5979 848.244 91.3261 847.644 90 847.644C88.6739 847.644 87.4021 848.244 86.4645 849.311C85.5268 850.378 85 851.825 85 853.333V853.333Z" stroke="#8F8F8F"/>
<path d="M85 921.6C85 923.109 85.5268 924.556 86.4645 925.623C87.4021 926.69 88.6739 927.289 90 927.289C91.3261 927.289 92.5979 926.69 93.5355 925.623C94.4732 924.556 95 923.109 95 921.6C95 920.091 94.4732 918.644 93.5355 917.577C92.5979 916.51 91.3261 915.911 90 915.911C88.6739 915.911 87.4021 916.51 86.4645 917.577C85.5268 918.644 85 920.091 85 921.6V921.6Z" stroke="#8F8F8F"/>
<path d="M96 983.04L84 996.693L96 983.04Z" stroke="#8F8F8F"/>
<path d="M156 846.507L144 860.16L156 846.507Z" stroke="#8F8F8F"/>
<path d="M180 887.467L120 955.733L180 887.467Z" stroke="#8F8F8F" stroke-width="3"/>
<path d="M149 989.867C149 990.168 149.105 990.458 149.293 990.671C149.48 990.885 149.735 991.004 150 991.004C150.265 991.004 150.52 990.885 150.707 990.671C150.895 990.458 151 990.168 151 989.867C151 989.565 150.895 989.276 150.707 989.062C150.52 988.849 150.265 988.729 150 988.729C149.735 988.729 149.48 988.849 149.293 989.062C149.105 989.276 149 989.565 149 989.867V989.867Z" stroke="#8F8F8F"/>
<path d="M212 851.058L208 855.609L212 851.058Z" stroke="#8F8F8F"/>
<path d="M216 914.773L204 928.427L216 914.773Z" stroke="#8F8F8F"/>
<path d="M205 989.867C205 991.375 205.527 992.822 206.464 993.889C207.402 994.956 208.674 995.556 210 995.556C211.326 995.556 212.598 994.956 213.536 993.889C214.473 992.822 215 991.375 215 989.867C215 988.358 214.473 986.911 213.536 985.844C212.598 984.777 211.326 984.178 210 984.178C208.674 984.178 207.402 984.777 206.464 985.844C205.527 986.911 205 988.358 205 989.867V989.867Z" stroke="#8F8F8F"/>
<path d="M265 853.333C265 854.842 265.527 856.289 266.464 857.356C267.402 858.423 268.674 859.022 270 859.022C271.326 859.022 272.598 858.423 273.536 857.356C274.473 856.289 275 854.842 275 853.333C275 851.825 274.473 850.378 273.536 849.311C272.598 848.244 271.326 847.644 270 847.644C268.674 847.644 267.402 848.244 266.464 849.311C265.527 850.378 265 851.825 265 853.333V853.333Z" stroke="#8F8F8F"/>
<path d="M269 921.6C269 921.902 269.105 922.191 269.293 922.405C269.48 922.618 269.735 922.738 270 922.738C270.265 922.738 270.52 922.618 270.707 922.405C270.895 922.191 271 921.902 271 921.6C271 921.298 270.895 921.009 270.707 920.795C270.52 920.582 270.265 920.462 270 920.462C269.735 920.462 269.48 920.582 269.293 920.795C269.105 921.009 269 921.298 269 921.6V921.6Z" stroke="#8F8F8F"/>
<path d="M265 989.867C265 991.375 265.527 992.822 266.464 993.889C267.402 994.956 268.674 995.556 270 995.556C271.326 995.556 272.598 994.956 273.536 993.889C274.473 992.822 275 991.375 275 989.867C275 988.358 274.473 986.911 273.536 985.844C272.598 984.777 271.326 984.178 270 984.178C268.674 984.178 267.402 984.777 266.464 985.844C265.527 986.911 265 988.358 265 989.867V989.867Z" stroke="#8F8F8F"/>
<path d="M332 851.058L328 855.609L332 851.058Z" stroke="#8F8F8F"/>
<path d="M325 921.6C325 923.109 325.527 924.556 326.464 925.623C327.402 926.69 328.674 927.289 330 927.289C331.326 927.289 332.598 926.69 333.536 925.623C334.473 924.556 335 923.109 335 921.6C335 920.091 334.473 918.644 333.536 917.577C332.598 916.51 331.326 915.911 330 915.911C328.674 915.911 327.402 916.51 326.464 917.577C325.527 918.644 325 920.091 325 921.6V921.6Z" stroke="#8F8F8F"/>
<path d="M336 983.04L324 996.693L336 983.04Z" stroke="#8F8F8F"/>
<path d="M385 853.333C385 854.842 385.527 856.289 386.464 857.356C387.402 858.423 388.674 859.022 390 859.022C391.326 859.022 392.598 858.423 393.536 857.356C394.473 856.289 395 854.842 395 853.333C395 851.825 394.473 850.378 393.536 849.311C392.598 848.244 391.326 847.644 390 847.644C388.674 847.644 387.402 848.244 386.464 849.311C385.527 850.378 385 851.825 385 853.333V853.333Z" stroke="#8F8F8F"/>
<path d="M392 919.324L388 923.876L392 919.324Z" stroke="#8F8F8F"/>
<path d="M392 987.591L388 992.142L392 987.591Z" stroke="#8F8F8F"/>
<path d="M445 853.333C445 854.842 445.527 856.289 446.464 857.356C447.402 858.423 448.674 859.022 450 859.022C451.326 859.022 452.598 858.423 453.536 857.356C454.473 856.289 455 854.842 455 853.333C455 851.825 454.473 850.378 453.536 849.311C452.598 848.244 451.326 847.644 450 847.644C448.674 847.644 447.402 848.244 446.464 849.311C445.527 850.378 445 851.825 445 853.333V853.333Z" stroke="#8F8F8F"/>
<path d="M452 919.324L448 923.876L452 919.324Z" stroke="#8F8F8F"/>
<path d="M456 983.04L444 996.693L456 983.04Z" stroke="#8F8F8F"/>
<path d="M516 846.507L504 860.16L516 846.507Z" stroke="#8F8F8F"/>
<path d="M516 914.773L504 928.427L516 914.773Z" stroke="#8F8F8F"/>
<path d="M512 987.591L508 992.142L512 987.591Z" stroke="#8F8F8F"/>
<path d="M565 853.333C565 854.842 565.527 856.289 566.464 857.356C567.402 858.423 568.674 859.022 570 859.022C571.326 859.022 572.598 858.423 573.536 857.356C574.473 856.289 575 854.842 575 853.333C575 851.825 574.473 850.378 573.536 849.311C572.598 848.244 571.326 847.644 570 847.644C568.674 847.644 567.402 848.244 566.464 849.311C565.527 850.378 565 851.825 565 853.333V853.333Z" stroke="#8F8F8F"/>
<path d="M567 921.6C567 922.505 567.316 923.373 567.879 924.014C568.441 924.654 569.204 925.013 570 925.013C570.796 925.013 571.559 924.654 572.121 924.014C572.684 923.373 573 922.505 573 921.6C573 920.695 572.684 919.827 572.121 919.186C571.559 918.546 570.796 918.187 570 918.187C569.204 918.187 568.441 918.546 567.879 919.186C567.316 919.827 567 920.695 567 921.6V921.6Z" stroke="#8F8F8F"/>
<path d="M565 989.867C565 991.375 565.527 992.822 566.464 993.889C567.402 994.956 568.674 995.556 570 995.556C571.326 995.556 572.598 994.956 573.536 993.889C574.473 992.822 575 991.375 575 989.867C575 988.358 574.473 986.911 573.536 985.844C572.598 984.777 571.326 984.178 570 984.178C568.674 984.178 567.402 984.777 566.464 985.844C565.527 986.911 565 988.358 565 989.867V989.867Z" stroke="#8F8F8F"/>
<path d="M625 853.333C625 854.842 625.527 856.289 626.464 857.356C627.402 858.423 628.674 859.022 630 859.022C631.326 859.022 632.598 858.423 633.536 857.356C634.473 856.289 635 854.842 635 853.333C635 851.825 634.473 850.378 633.536 849.311C632.598 848.244 631.326 847.644 630 847.644C628.674 847.644 627.402 848.244 626.464 849.311C625.527 850.378 625 851.825 625 853.333V853.333Z" stroke="#8F8F8F"/>
<path d="M636 914.773L624 928.427L636 914.773Z" stroke="#8F8F8F"/>
<path d="M627 989.867C627 990.772 627.316 991.64 627.879 992.28C628.441 992.92 629.204 993.28 630 993.28C630.796 993.28 631.559 992.92 632.121 992.28C632.684 991.64 633 990.772 633 989.867C633 988.961 632.684 988.093 632.121 987.453C631.559 986.813 630.796 986.453 630 986.453C629.204 986.453 628.441 986.813 627.879 987.453C627.316 988.093 627 988.961 627 989.867V989.867Z" stroke="#8F8F8F"/>
<path d="M685 853.333C685 854.842 685.527 856.289 686.464 857.356C687.402 858.423 688.674 859.022 690 859.022C691.326 859.022 692.598 858.423 693.536 857.356C694.473 856.289 695 854.842 695 853.333C695 851.825 694.473 850.378 693.536 849.311C692.598 848.244 691.326 847.644 690 847.644C688.674 847.644 687.402 848.244 686.464 849.311C685.527 850.378 685 851.825 685 853.333V853.333Z" stroke="#8F8F8F"/>
<path d="M696 914.773L684 928.427L696 914.773Z" stroke="#8F8F8F"/>
<path d="M696 983.04L684 996.693L696 983.04Z" stroke="#8F8F8F"/>
<path d="M756 27.3067L744 40.96L756 27.3067Z" stroke="#8F8F8F"/>
<path d="M756 95.5733L744 109.227L756 95.5733Z" stroke="#8F8F8F"/>
<path d="M745 170.667C745 172.175 745.527 173.622 746.464 174.689C747.402 175.756 748.674 176.356 750 176.356C751.326 176.356 752.598 175.756 753.536 174.689C754.473 173.622 755 172.175 755 170.667C755 169.158 754.473 167.711 753.536 166.644C752.598 165.577 751.326 164.978 750 164.978C748.674 164.978 747.402 165.577 746.464 166.644C745.527 167.711 745 169.158 745 170.667V170.667Z" stroke="#8F8F8F"/>
<path d="M745 238.933C745 240.442 745.527 241.889 746.464 242.956C747.402 244.023 748.674 244.622 750 244.622C751.326 244.622 752.598 244.023 753.536 242.956C754.473 241.889 755 240.442 755 238.933C755 237.425 754.473 235.978 753.536 234.911C752.598 233.844 751.326 233.244 750 233.244C748.674 233.244 747.402 233.844 746.464 234.911C745.527 235.978 745 237.425 745 238.933V238.933Z" stroke="#8F8F8F"/>
<path d="M745 307.2C745 308.709 745.527 310.156 746.464 311.223C747.402 312.29 748.674 312.889 750 312.889C751.326 312.889 752.598 312.29 753.536 311.223C754.473 310.156 755 308.709 755 307.2C755 305.691 754.473 304.244 753.536 303.177C752.598 302.11 751.326 301.511 750 301.511C748.674 301.511 747.402 302.11 746.464 303.177C745.527 304.244 745 305.691 745 307.2V307.2Z" stroke="#8F8F8F"/>
<path d="M747 375.467C747 376.372 747.316 377.24 747.879 377.88C748.441 378.52 749.204 378.88 750 378.88C750.796 378.88 751.559 378.52 752.121 377.88C752.684 377.24 753 376.372 753 375.467C753 374.561 752.684 373.693 752.121 373.053C751.559 372.413 750.796 372.053 750 372.053C749.204 372.053 748.441 372.413 747.879 373.053C747.316 373.693 747 374.561 747 375.467V375.467Z" stroke="#8F8F8F"/>
<path d="M747 443.733C747 444.639 747.316 445.507 747.879 446.147C748.441 446.787 749.204 447.147 750 447.147C750.796 447.147 751.559 446.787 752.121 446.147C752.684 445.507 753 444.639 753 443.733C753 442.828 752.684 441.96 752.121 441.32C751.559 440.68 750.796 440.32 750 440.32C749.204 440.32 748.441 440.68 747.879 441.32C747.316 441.96 747 442.828 747 443.733V443.733Z" stroke="#8F8F8F"/>
<path d="M756 505.173L744 518.827L756 505.173Z" stroke="#8F8F8F"/>
<path d="M756 573.44L744 587.093L756 573.44Z" stroke="#8F8F8F"/>
<path d="M780 614.4L720 682.667L780 614.4Z" stroke="#8F8F8F" stroke-width="3"/>
<path d="M745 716.8C745 718.309 745.527 719.756 746.464 720.823C747.402 721.89 748.674 722.489 750 722.489C751.326 722.489 752.598 721.89 753.536 720.823C754.473 719.756 755 718.309 755 716.8C755 715.291 754.473 713.844 753.536 712.777C752.598 711.71 751.326 711.111 750 711.111C748.674 711.111 747.402 711.71 746.464 712.777C745.527 713.844 745 715.291 745 716.8V716.8Z" stroke="#8F8F8F"/>
<path d="M780 750.933L720 819.2L780 750.933Z" stroke="#8F8F8F" stroke-width="3"/>
<path d="M805 34.1333C805 35.6421 805.527 37.0891 806.464 38.156C807.402 39.2229 808.674 39.8222 810 39.8222C811.326 39.8222 812.598 39.2229 813.536 38.156C814.473 37.0891 815 35.6421 815 34.1333C815 32.6246 814.473 31.1776 813.536 30.1107C812.598 29.0438 811.326 28.4445 810 28.4445C808.674 28.4445 807.402 29.0438 806.464 30.1107C805.527 31.1776 805 32.6246 805 34.1333V34.1333Z" stroke="#8F8F8F"/>
<path d="M805 102.4C805 103.909 805.527 105.356 806.464 106.423C807.402 107.49 808.674 108.089 810 108.089C811.326 108.089 812.598 107.49 813.536 106.423C814.473 105.356 815 103.909 815 102.4C815 100.891 814.473 99.4442 813.536 98.3774C812.598 97.3105 811.326 96.7111 810 96.7111C808.674 96.7111 807.402 97.3105 806.464 98.3774C805.527 99.4442 805 100.891 805 102.4V102.4Z" stroke="#8F8F8F"/>
<path d="M816 163.84L804 177.493L816 163.84Z" stroke="#8F8F8F"/>
<path d="M816 232.107L804 245.76L816 232.107Z" stroke="#8F8F8F"/>
<path d="M805 307.2C805 308.709 805.527 310.156 806.464 311.223C807.402 312.29 808.674 312.889 810 312.889C811.326 312.889 812.598 312.29 813.536 311.223C814.473 310.156 815 308.709 815 307.2C815 305.691 814.473 304.244 813.536 303.177C812.598 302.11 811.326 301.511 810 301.511C808.674 301.511 807.402 302.11 806.464 303.177C805.527 304.244 805 305.691 805 307.2V307.2Z" stroke="#8F8F8F"/>
<path d="M812 373.191L808 377.742L812 373.191Z" stroke="#8F8F8F"/>
<path d="M807 443.733C807 444.639 807.316 445.507 807.879 446.147C808.441 446.787 809.204 447.147 810 447.147C810.796 447.147 811.559 446.787 812.121 446.147C812.684 445.507 813 444.639 813 443.733C813 442.828 812.684 441.96 812.121 441.32C811.559 440.68 810.796 440.32 810 440.32C809.204 440.32 808.441 440.68 807.879 441.32C807.316 441.96 807 442.828 807 443.733V443.733Z" stroke="#8F8F8F"/>
<path d="M812 509.724L808 514.276L812 509.724Z" stroke="#8F8F8F"/>
<path d="M812 577.991L808 582.542L812 577.991Z" stroke="#8F8F8F"/>
<path d="M812 646.258L808 650.809L812 646.258Z" stroke="#8F8F8F"/>
<path d="M816 709.973L804 723.627L816 709.973Z" stroke="#8F8F8F"/>
<path d="M807 785.067C807 785.972 807.316 786.84 807.879 787.48C808.441 788.12 809.204 788.48 810 788.48C810.796 788.48 811.559 788.12 812.121 787.48C812.684 786.84 813 785.972 813 785.067C813 784.161 812.684 783.293 812.121 782.653C811.559 782.013 810.796 781.653 810 781.653C809.204 781.653 808.441 782.013 807.879 782.653C807.316 783.293 807 784.161 807 785.067V785.067Z" stroke="#8F8F8F"/>
<path d="M876 27.3067L864 40.96L876 27.3067Z" stroke="#8F8F8F"/>
<path d="M900 68.2667L840 136.533L900 68.2667Z" stroke="#8F8F8F" stroke-width="3"/>
<path d="M869 170.667C869 170.968 869.105 171.258 869.293 171.471C869.48 171.685 869.735 171.804 870 171.804C870.265 171.804 870.52 171.685 870.707 171.471C870.895 171.258 871 170.968 871 170.667C871 170.365 870.895 170.075 870.707 169.862C870.52 169.649 870.265 169.529 870 169.529C869.735 169.529 869.48 169.649 869.293 169.862C869.105 170.075 869 170.365 869 170.667V170.667Z" stroke="#8F8F8F"/>
<path d="M876 232.107L864 245.76L876 232.107Z" stroke="#8F8F8F"/>
<path d="M867 307.2C867 308.105 867.316 308.973 867.879 309.614C868.441 310.254 869.204 310.613 870 310.613C870.796 310.613 871.559 310.254 872.121 309.614C872.684 308.973 873 308.105 873 307.2C873 306.295 872.684 305.427 872.121 304.786C871.559 304.146 870.796 303.787 870 303.787C869.204 303.787 868.441 304.146 867.879 304.786C867.316 305.427 867 306.295 867 307.2V307.2Z" stroke="#8F8F8F"/>
<path d="M865 375.467C865 376.975 865.527 378.422 866.464 379.489C867.402 380.556 868.674 381.156 870 381.156C871.326 381.156 872.598 380.556 873.536 379.489C874.473 378.422 875 376.975 875 375.467C875 373.958 874.473 372.511 873.536 371.444C872.598 370.377 871.326 369.778 870 369.778C868.674 369.778 867.402 370.377 866.464 371.444C865.527 372.511 865 373.958 865 375.467V375.467Z" stroke="#8F8F8F"/>
<path d="M876 436.907L864 450.56L876 436.907Z" stroke="#8F8F8F"/>
<path d="M876 505.173L864 518.827L876 505.173Z" stroke="#8F8F8F"/>
<path d="M869 580.267C869 580.568 869.105 580.858 869.293 581.071C869.48 581.285 869.735 581.404 870 581.404C870.265 581.404 870.52 581.285 870.707 581.071C870.895 580.858 871 580.568 871 580.267C871 579.965 870.895 579.675 870.707 579.462C870.52 579.249 870.265 579.129 870 579.129C869.735 579.129 869.48 579.249 869.293 579.462C869.105 579.675 869 579.965 869 580.267V580.267Z" stroke="#8F8F8F"/>
<path d="M876 641.707L864 655.36L876 641.707Z" stroke="#8F8F8F"/>
<path d="M900 682.667L840 750.933L900 682.667Z" stroke="#8F8F8F" stroke-width="3"/>
<path d="M867 785.067C867 785.972 867.316 786.84 867.879 787.48C868.441 788.12 869.204 788.48 870 788.48C870.796 788.48 871.559 788.12 872.121 787.48C872.684 786.84 873 785.972 873 785.067C873 784.161 872.684 783.293 872.121 782.653C871.559 782.013 870.796 781.653 870 781.653C869.204 781.653 868.441 782.013 867.879 782.653C867.316 783.293 867 784.161 867 785.067V785.067Z" stroke="#8F8F8F"/>
<path d="M932 31.8578L928 36.4089L932 31.8578Z" stroke="#8F8F8F"/>
<path d="M936 95.5733L924 109.227L936 95.5733Z" stroke="#8F8F8F"/>
<path d="M925 170.667C925 172.175 925.527 173.622 926.464 174.689C927.402 175.756 928.674 176.356 930 176.356C931.326 176.356 932.598 175.756 933.536 174.689C934.473 173.622 935 172.175 935 170.667C935 169.158 934.473 167.711 933.536 166.644C932.598 165.577 931.326 164.978 930 164.978C928.674 164.978 927.402 165.577 926.464 166.644C925.527 167.711 925 169.158 925 170.667V170.667Z" stroke="#8F8F8F"/>
<path d="M925 238.933C925 240.442 925.527 241.889 926.464 242.956C927.402 244.023 928.674 244.622 930 244.622C931.326 244.622 932.598 244.023 933.536 242.956C934.473 241.889 935 240.442 935 238.933C935 237.425 934.473 235.978 933.536 234.911C932.598 233.844 931.326 233.244 930 233.244C928.674 233.244 927.402 233.844 926.464 234.911C925.527 235.978 925 237.425 925 238.933V238.933Z" stroke="#8F8F8F"/>
<path d="M936 300.373L924 314.027L936 300.373Z" stroke="#8F8F8F"/>
<path d="M929 375.467C929 375.768 929.105 376.058 929.293 376.271C929.48 376.485 929.735 376.604 930 376.604C930.265 376.604 930.52 376.485 930.707 376.271C930.895 376.058 931 375.768 931 375.467C931 375.165 930.895 374.876 930.707 374.662C930.52 374.449 930.265 374.329 930 374.329C929.735 374.329 929.48 374.449 929.293 374.662C929.105 374.876 929 375.165 929 375.467V375.467Z" stroke="#8F8F8F"/>
<path d="M929 443.733C929 444.035 929.105 444.324 929.293 444.538C929.48 444.751 929.735 444.871 930 444.871C930.265 444.871 930.52 444.751 930.707 444.538C930.895 444.324 931 444.035 931 443.733C931 443.432 930.895 443.142 930.707 442.929C930.52 442.715 930.265 442.596 930 442.596C929.735 442.596 929.48 442.715 929.293 442.929C929.105 443.142 929 443.432 929 443.733V443.733Z" stroke="#8F8F8F"/>
<path d="M936 505.173L924 518.827L936 505.173Z" stroke="#8F8F8F"/>
<path d="M936 573.44L924 587.093L936 573.44Z" stroke="#8F8F8F"/>
<path d="M932 646.258L928 650.809L932 646.258Z" stroke="#8F8F8F"/>
<path d="M936 709.973L924 723.627L936 709.973Z" stroke="#8F8F8F"/>
<path d="M929 785.067C929 785.368 929.105 785.658 929.293 785.871C929.48 786.085 929.735 786.204 930 786.204C930.265 786.204 930.52 786.085 930.707 785.871C930.895 785.658 931 785.368 931 785.067C931 784.765 930.895 784.476 930.707 784.262C930.52 784.049 930.265 783.929 930 783.929C929.735 783.929 929.48 784.049 929.293 784.262C929.105 784.476 929 784.765 929 785.067V785.067Z" stroke="#8F8F8F"/>
<path d="M985 34.1333C985 35.6421 985.527 37.0891 986.464 38.156C987.402 39.2229 988.674 39.8222 990 39.8222C991.326 39.8222 992.598 39.2229 993.536 38.156C994.473 37.0891 995 35.6421 995 34.1333C995 32.6246 994.473 31.1776 993.536 30.1107C992.598 29.0438 991.326 28.4445 990 28.4445C988.674 28.4445 987.402 29.0438 986.464 30.1107C985.527 31.1776 985 32.6246 985 34.1333V34.1333Z" stroke="#8F8F8F"/>
<path d="M989 102.4C989 102.702 989.105 102.991 989.293 103.205C989.48 103.418 989.735 103.538 990 103.538C990.265 103.538 990.52 103.418 990.707 103.205C990.895 102.991 991 102.702 991 102.4C991 102.098 990.895 101.809 990.707 101.595C990.52 101.382 990.265 101.262 990 101.262C989.735 101.262 989.48 101.382 989.293 101.595C989.105 101.809 989 102.098 989 102.4V102.4Z" stroke="#8F8F8F"/>
<path d="M985 170.667C985 172.175 985.527 173.622 986.464 174.689C987.402 175.756 988.674 176.356 990 176.356C991.326 176.356 992.598 175.756 993.536 174.689C994.473 173.622 995 172.175 995 170.667C995 169.158 994.473 167.711 993.536 166.644C992.598 165.577 991.326 164.978 990 164.978C988.674 164.978 987.402 165.577 986.464 166.644C985.527 167.711 985 169.158 985 170.667V170.667Z" stroke="#8F8F8F"/>
<path d="M992 236.658L988 241.209L992 236.658Z" stroke="#8F8F8F"/>
<path d="M985 307.2C985 308.709 985.527 310.156 986.464 311.223C987.402 312.29 988.674 312.889 990 312.889C991.326 312.889 992.598 312.29 993.536 311.223C994.473 310.156 995 308.709 995 307.2C995 305.691 994.473 304.244 993.536 303.177C992.598 302.11 991.326 301.511 990 301.511C988.674 301.511 987.402 302.11 986.464 303.177C985.527 304.244 985 305.691 985 307.2V307.2Z" stroke="#8F8F8F"/>
<path d="M992 373.191L988 377.742L992 373.191Z" stroke="#8F8F8F"/>
<path d="M985 443.733C985 445.242 985.527 446.689 986.464 447.756C987.402 448.823 988.674 449.422 990 449.422C991.326 449.422 992.598 448.823 993.536 447.756C994.473 446.689 995 445.242 995 443.733C995 442.225 994.473 440.778 993.536 439.711C992.598 438.644 991.326 438.044 990 438.044C988.674 438.044 987.402 438.644 986.464 439.711C985.527 440.778 985 442.225 985 443.733V443.733Z" stroke="#8F8F8F"/>
<path d="M996 505.173L984 518.827L996 505.173Z" stroke="#8F8F8F"/>
<path d="M985 580.267C985 581.775 985.527 583.222 986.464 584.289C987.402 585.356 988.674 585.956 990 585.956C991.326 585.956 992.598 585.356 993.536 584.289C994.473 583.222 995 581.775 995 580.267C995 578.758 994.473 577.311 993.536 576.244C992.598 575.177 991.326 574.578 990 574.578C988.674 574.578 987.402 575.177 986.464 576.244C985.527 577.311 985 578.758 985 580.267V580.267Z" stroke="#8F8F8F"/>
<path d="M996 641.707L984 655.36L996 641.707Z" stroke="#8F8F8F"/>
<path d="M987 716.8C987 717.705 987.316 718.573 987.879 719.214C988.441 719.854 989.204 720.213 990 720.213C990.796 720.213 991.559 719.854 992.121 719.214C992.684 718.573 993 717.705 993 716.8C993 715.895 992.684 715.026 992.121 714.386C991.559 713.746 990.796 713.387 990 713.387C989.204 713.387 988.441 713.746 987.879 714.386C987.316 715.026 987 715.895 987 716.8V716.8Z" stroke="#8F8F8F"/>
<path d="M1020 750.933L960 819.2L1020 750.933Z" stroke="#8F8F8F" stroke-width="3"/>
<path d="M1052 31.8578L1048 36.4089L1052 31.8578Z" stroke="#8F8F8F"/>
<path d="M1045 102.4C1045 103.909 1045.53 105.356 1046.46 106.423C1047.4 107.49 1048.67 108.089 1050 108.089C1051.33 108.089 1052.6 107.49 1053.54 106.423C1054.47 105.356 1055 103.909 1055 102.4C1055 100.891 1054.47 99.4442 1053.54 98.3774C1052.6 97.3105 1051.33 96.7111 1050 96.7111C1048.67 96.7111 1047.4 97.3105 1046.46 98.3774C1045.53 99.4442 1045 100.891 1045 102.4V102.4Z" stroke="#8F8F8F"/>
<path d="M1056 163.84L1044 177.493L1056 163.84Z" stroke="#8F8F8F"/>
<path d="M1056 232.107L1044 245.76L1056 232.107Z" stroke="#8F8F8F"/>
<path d="M1080 273.067L1020 341.333L1080 273.067Z" stroke="#8F8F8F" stroke-width="3"/>
<path d="M1045 375.467C1045 376.975 1045.53 378.422 1046.46 379.489C1047.4 380.556 1048.67 381.156 1050 381.156C1051.33 381.156 1052.6 380.556 1053.54 379.489C1054.47 378.422 1055 376.975 1055 375.467C1055 373.958 1054.47 372.511 1053.54 371.444C1052.6 370.377 1051.33 369.778 1050 369.778C1048.67 369.778 1047.4 370.377 1046.46 371.444C1045.53 372.511 1045 373.958 1045 375.467V375.467Z" stroke="#8F8F8F"/>
<path d="M1045 443.733C1045 445.242 1045.53 446.689 1046.46 447.756C1047.4 448.823 1048.67 449.422 1050 449.422C1051.33 449.422 1052.6 448.823 1053.54 447.756C1054.47 446.689 1055 445.242 1055 443.733C1055 442.225 1054.47 440.778 1053.54 439.711C1052.6 438.644 1051.33 438.044 1050 438.044C1048.67 438.044 1047.4 438.644 1046.46 439.711C1045.53 440.778 1045 442.225 1045 443.733V443.733Z" stroke="#8F8F8F"/>
<path d="M1052 509.724L1048 514.276L1052 509.724Z" stroke="#8F8F8F"/>
<path d="M1045 580.267C1045 581.775 1045.53 583.222 1046.46 584.289C1047.4 585.356 1048.67 585.956 1050 585.956C1051.33 585.956 1052.6 585.356 1053.54 584.289C1054.47 583.222 1055 581.775 1055 580.267C1055 578.758 1054.47 577.311 1053.54 576.244C1052.6 575.177 1051.33 574.578 1050 574.578C1048.67 574.578 1047.4 575.177 1046.46 576.244C1045.53 577.311 1045 578.758 1045 580.267V580.267Z" stroke="#8F8F8F"/>
<path d="M1056 641.707L1044 655.36L1056 641.707Z" stroke="#8F8F8F"/>
<path d="M1045 716.8C1045 718.309 1045.53 719.756 1046.46 720.823C1047.4 721.89 1048.67 722.489 1050 722.489C1051.33 722.489 1052.6 721.89 1053.54 720.823C1054.47 719.756 1055 718.309 1055 716.8C1055 715.291 1054.47 713.844 1053.54 712.777C1052.6 711.71 1051.33 711.111 1050 711.111C1048.67 711.111 1047.4 711.71 1046.46 712.777C1045.53 713.844 1045 715.291 1045 716.8V716.8Z" stroke="#8F8F8F"/>
<path d="M1045 785.067C1045 786.575 1045.53 788.022 1046.46 789.089C1047.4 790.156 1048.67 790.756 1050 790.756C1051.33 790.756 1052.6 790.156 1053.54 789.089C1054.47 788.022 1055 786.575 1055 785.067C1055 783.558 1054.47 782.111 1053.54 781.044C1052.6 779.977 1051.33 779.378 1050 779.378C1048.67 779.378 1047.4 779.977 1046.46 781.044C1045.53 782.111 1045 783.558 1045 785.067V785.067Z" stroke="#8F8F8F"/>
<path d="M1105 34.1333C1105 35.6421 1105.53 37.0891 1106.46 38.156C1107.4 39.2229 1108.67 39.8222 1110 39.8222C1111.33 39.8222 1112.6 39.2229 1113.54 38.156C1114.47 37.0891 1115 35.6421 1115 34.1333C1115 32.6246 1114.47 31.1776 1113.54 30.1107C1112.6 29.0438 1111.33 28.4445 1110 28.4445C1108.67 28.4445 1107.4 29.0438 1106.46 30.1107C1105.53 31.1776 1105 32.6246 1105 34.1333V34.1333Z" stroke="#8F8F8F"/>
<path d="M1112 100.124L1108 104.676L1112 100.124Z" stroke="#8F8F8F"/>
<path d="M1112 168.391L1108 172.942L1112 168.391Z" stroke="#8F8F8F"/>
<path d="M1112 236.658L1108 241.209L1112 236.658Z" stroke="#8F8F8F"/>
<path d="M1105 307.2C1105 308.709 1105.53 310.156 1106.46 311.223C1107.4 312.29 1108.67 312.889 1110 312.889C1111.33 312.889 1112.6 312.29 1113.54 311.223C1114.47 310.156 1115 308.709 1115 307.2C1115 305.691 1114.47 304.244 1113.54 303.177C1112.6 302.11 1111.33 301.511 1110 301.511C1108.67 301.511 1107.4 302.11 1106.46 303.177C1105.53 304.244 1105 305.691 1105 307.2V307.2Z" stroke="#8F8F8F"/>
<path d="M1116 368.64L1104 382.293L1116 368.64Z" stroke="#8F8F8F"/>
<path d="M1116 436.907L1104 450.56L1116 436.907Z" stroke="#8F8F8F"/>
<path d="M1105 512C1105 513.509 1105.53 514.956 1106.46 516.023C1107.4 517.09 1108.67 517.689 1110 517.689C1111.33 517.689 1112.6 517.09 1113.54 516.023C1114.47 514.956 1115 513.509 1115 512C1115 510.491 1114.47 509.044 1113.54 507.977C1112.6 506.91 1111.33 506.311 1110 506.311C1108.67 506.311 1107.4 506.91 1106.46 507.977C1105.53 509.044 1105 510.491 1105 512V512Z" stroke="#8F8F8F"/>
<path d="M1107 580.267C1107 581.172 1107.32 582.04 1107.88 582.68C1108.44 583.32 1109.2 583.68 1110 583.68C1110.8 583.68 1111.56 583.32 1112.12 582.68C1112.68 582.04 1113 581.172 1113 580.267C1113 579.361 1112.68 578.493 1112.12 577.853C1111.56 577.213 1110.8 576.853 1110 576.853C1109.2 576.853 1108.44 577.213 1107.88 577.853C1107.32 578.493 1107 579.361 1107 580.267V580.267Z" stroke="#8F8F8F"/>
<path d="M1105 648.533C1105 650.042 1105.53 651.489 1106.46 652.556C1107.4 653.623 1108.67 654.222 1110 654.222C1111.33 654.222 1112.6 653.623 1113.54 652.556C1114.47 651.489 1115 650.042 1115 648.533C1115 647.025 1114.47 645.578 1113.54 644.511C1112.6 643.444 1111.33 642.844 1110 642.844C1108.67 642.844 1107.4 643.444 1106.46 644.511C1105.53 645.578 1105 647.025 1105 648.533V648.533Z" stroke="#8F8F8F"/>
<path d="M1112 714.524L1108 719.076L1112 714.524Z" stroke="#8F8F8F"/>
<path d="M1116 778.24L1104 791.893L1116 778.24Z" stroke="#8F8F8F"/>
<path d="M1165 34.1333C1165 35.6421 1165.53 37.0891 1166.46 38.156C1167.4 39.2229 1168.67 39.8222 1170 39.8222C1171.33 39.8222 1172.6 39.2229 1173.54 38.156C1174.47 37.0891 1175 35.6421 1175 34.1333C1175 32.6246 1174.47 31.1776 1173.54 30.1107C1172.6 29.0438 1171.33 28.4445 1170 28.4445C1168.67 28.4445 1167.4 29.0438 1166.46 30.1107C1165.53 31.1776 1165 32.6246 1165 34.1333V34.1333Z" stroke="#8F8F8F"/>
<path d="M1172 100.124L1168 104.676L1172 100.124Z" stroke="#8F8F8F"/>
<path d="M1176 163.84L1164 177.493L1176 163.84Z" stroke="#8F8F8F"/>
<path d="M1176 232.107L1164 245.76L1176 232.107Z" stroke="#8F8F8F"/>
<path d="M1165 307.2C1165 308.709 1165.53 310.156 1166.46 311.223C1167.4 312.29 1168.67 312.889 1170 312.889C1171.33 312.889 1172.6 312.29 1173.54 311.223C1174.47 310.156 1175 308.709 1175 307.2C1175 305.691 1174.47 304.244 1173.54 303.177C1172.6 302.11 1171.33 301.511 1170 301.511C1168.67 301.511 1167.4 302.11 1166.46 303.177C1165.53 304.244 1165 305.691 1165 307.2V307.2Z" stroke="#8F8F8F"/>
<path d="M1176 368.64L1164 382.293L1176 368.64Z" stroke="#8F8F8F"/>
<path d="M1176 436.907L1164 450.56L1176 436.907Z" stroke="#8F8F8F"/>
<path d="M1167 512C1167 512.905 1167.32 513.773 1167.88 514.414C1168.44 515.054 1169.2 515.413 1170 515.413C1170.8 515.413 1171.56 515.054 1172.12 514.414C1172.68 513.773 1173 512.905 1173 512C1173 511.095 1172.68 510.227 1172.12 509.586C1171.56 508.946 1170.8 508.587 1170 508.587C1169.2 508.587 1168.44 508.946 1167.88 509.586C1167.32 510.227 1167 511.095 1167 512V512Z" stroke="#8F8F8F"/>
<path d="M1176 573.44L1164 587.093L1176 573.44Z" stroke="#8F8F8F"/>
<path d="M1176 641.707L1164 655.36L1176 641.707Z" stroke="#8F8F8F"/>
<path d="M1165 716.8C1165 718.309 1165.53 719.756 1166.46 720.823C1167.4 721.89 1168.67 722.489 1170 722.489C1171.33 722.489 1172.6 721.89 1173.54 720.823C1174.47 719.756 1175 718.309 1175 716.8C1175 715.291 1174.47 713.844 1173.54 712.777C1172.6 711.71 1171.33 711.111 1170 711.111C1168.67 711.111 1167.4 711.71 1166.46 712.777C1165.53 713.844 1165 715.291 1165 716.8V716.8Z" stroke="#8F8F8F"/>
<path d="M1176 778.24L1164 791.893L1176 778.24Z" stroke="#8F8F8F"/>
<path d="M1236 27.3067L1224 40.96L1236 27.3067Z" stroke="#8F8F8F"/>
<path d="M1236 95.5733L1224 109.227L1236 95.5733Z" stroke="#8F8F8F"/>
<path d="M1232 168.391L1228 172.942L1232 168.391Z" stroke="#8F8F8F"/>
<path d="M1227 238.933C1227 239.839 1227.32 240.707 1227.88 241.347C1228.44 241.987 1229.2 242.347 1230 242.347C1230.8 242.347 1231.56 241.987 1232.12 241.347C1232.68 240.707 1233 239.839 1233 238.933C1233 238.028 1232.68 237.16 1232.12 236.52C1231.56 235.88 1230.8 235.52 1230 235.52C1229.2 235.52 1228.44 235.88 1227.88 236.52C1227.32 237.16 1227 238.028 1227 238.933V238.933Z" stroke="#8F8F8F"/>
<path d="M1232 304.924L1228 309.476L1232 304.924Z" stroke="#8F8F8F"/>
<path d="M1229 375.467C1229 375.768 1229.11 376.058 1229.29 376.271C1229.48 376.485 1229.73 376.604 1230 376.604C1230.27 376.604 1230.52 376.485 1230.71 376.271C1230.89 376.058 1231 375.768 1231 375.467C1231 375.165 1230.89 374.876 1230.71 374.662C1230.52 374.449 1230.27 374.329 1230 374.329C1229.73 374.329 1229.48 374.449 1229.29 374.662C1229.11 374.876 1229 375.165 1229 375.467V375.467Z" stroke="#8F8F8F"/>
<path d="M1232 441.458L1228 446.009L1232 441.458Z" stroke="#8F8F8F"/>
<path d="M1236 505.173L1224 518.827L1236 505.173Z" stroke="#8F8F8F"/>
<path d="M1225 580.267C1225 581.775 1225.53 583.222 1226.46 584.289C1227.4 585.356 1228.67 585.956 1230 585.956C1231.33 585.956 1232.6 585.356 1233.54 584.289C1234.47 583.222 1235 581.775 1235 580.267C1235 578.758 1234.47 577.311 1233.54 576.244C1232.6 575.177 1231.33 574.578 1230 574.578C1228.67 574.578 1227.4 575.177 1226.46 576.244C1225.53 577.311 1225 578.758 1225 580.267V580.267Z" stroke="#8F8F8F"/>
<path d="M1236 641.707L1224 655.36L1236 641.707Z" stroke="#8F8F8F"/>
<path d="M1236 709.973L1224 723.627L1236 709.973Z" stroke="#8F8F8F"/>
<path d="M1225 785.067C1225 786.575 1225.53 788.022 1226.46 789.089C1227.4 790.156 1228.67 790.756 1230 790.756C1231.33 790.756 1232.6 790.156 1233.54 789.089C1234.47 788.022 1235 786.575 1235 785.067C1235 783.558 1234.47 782.111 1233.54 781.044C1232.6 779.977 1231.33 779.378 1230 779.378C1228.67 779.378 1227.4 779.977 1226.46 781.044C1225.53 782.111 1225 783.558 1225 785.067V785.067Z" stroke="#8F8F8F"/>
<path d="M1285 34.1333C1285 35.6421 1285.53 37.0891 1286.46 38.156C1287.4 39.2229 1288.67 39.8222 1290 39.8222C1291.33 39.8222 1292.6 39.2229 1293.54 38.156C1294.47 37.0891 1295 35.6421 1295 34.1333C1295 32.6246 1294.47 31.1776 1293.54 30.1107C1292.6 29.0438 1291.33 28.4445 1290 28.4445C1288.67 28.4445 1287.4 29.0438 1286.46 30.1107C1285.53 31.1776 1285 32.6246 1285 34.1333V34.1333Z" stroke="#8F8F8F"/>
<path d="M1287 102.4C1287 103.305 1287.32 104.173 1287.88 104.814C1288.44 105.454 1289.2 105.813 1290 105.813C1290.8 105.813 1291.56 105.454 1292.12 104.814C1292.68 104.173 1293 103.305 1293 102.4C1293 101.495 1292.68 100.627 1292.12 99.9864C1291.56 99.3463 1290.8 98.9867 1290 98.9867C1289.2 98.9867 1288.44 99.3463 1287.88 99.9864C1287.32 100.627 1287 101.495 1287 102.4V102.4Z" stroke="#8F8F8F"/>
<path d="M1285 170.667C1285 172.175 1285.53 173.622 1286.46 174.689C1287.4 175.756 1288.67 176.356 1290 176.356C1291.33 176.356 1292.6 175.756 1293.54 174.689C1294.47 173.622 1295 172.175 1295 170.667C1295 169.158 1294.47 167.711 1293.54 166.644C1292.6 165.577 1291.33 164.978 1290 164.978C1288.67 164.978 1287.4 165.577 1286.46 166.644C1285.53 167.711 1285 169.158 1285 170.667V170.667Z" stroke="#8F8F8F"/>
<path d="M1292 236.658L1288 241.209L1292 236.658Z" stroke="#8F8F8F"/>
<path d="M1285 307.2C1285 308.709 1285.53 310.156 1286.46 311.223C1287.4 312.29 1288.67 312.889 1290 312.889C1291.33 312.889 1292.6 312.29 1293.54 311.223C1294.47 310.156 1295 308.709 1295 307.2C1295 305.691 1294.47 304.244 1293.54 303.177C1292.6 302.11 1291.33 301.511 1290 301.511C1288.67 301.511 1287.4 302.11 1286.46 303.177C1285.53 304.244 1285 305.691 1285 307.2V307.2Z" stroke="#8F8F8F"/>
<path d="M1296 368.64L1284 382.293L1296 368.64Z" stroke="#8F8F8F"/>
<path d="M1320 409.6L1260 477.867L1320 409.6Z" stroke="#8F8F8F" stroke-width="3"/>
<path d="M1289 512C1289 512.302 1289.11 512.591 1289.29 512.805C1289.48 513.018 1289.73 513.138 1290 513.138C1290.27 513.138 1290.52 513.018 1290.71 512.805C1290.89 512.591 1291 512.302 1291 512C1291 511.698 1290.89 511.409 1290.71 511.195C1290.52 510.982 1290.27 510.862 1290 510.862C1289.73 510.862 1289.48 510.982 1289.29 511.195C1289.11 511.409 1289 511.698 1289 512V512Z" stroke="#8F8F8F"/>
<path d="M1320 546.133L1260 614.4L1320 546.133Z" stroke="#8F8F8F" stroke-width="3"/>
<path d="M1292 646.258L1288 650.809L1292 646.258Z" stroke="#8F8F8F"/>
<path d="M1296 709.973L1284 723.627L1296 709.973Z" stroke="#8F8F8F"/>
<path d="M1285 785.067C1285 786.575 1285.53 788.022 1286.46 789.089C1287.4 790.156 1288.67 790.756 1290 790.756C1291.33 790.756 1292.6 790.156 1293.54 789.089C1294.47 788.022 1295 786.575 1295 785.067C1295 783.558 1294.47 782.111 1293.54 781.044C1292.6 779.977 1291.33 779.378 1290 779.378C1288.67 779.378 1287.4 779.977 1286.46 781.044C1285.53 782.111 1285 783.558 1285 785.067V785.067Z" stroke="#8F8F8F"/>
<path d="M1345 34.1333C1345 35.6421 1345.53 37.0891 1346.46 38.156C1347.4 39.2229 1348.67 39.8222 1350 39.8222C1351.33 39.8222 1352.6 39.2229 1353.54 38.156C1354.47 37.0891 1355 35.6421 1355 34.1333C1355 32.6246 1354.47 31.1776 1353.54 30.1107C1352.6 29.0438 1351.33 28.4445 1350 28.4445C1348.67 28.4445 1347.4 29.0438 1346.46 30.1107C1345.53 31.1776 1345 32.6246 1345 34.1333V34.1333Z" stroke="#8F8F8F"/>
<path d="M1356 95.5733L1344 109.227L1356 95.5733Z" stroke="#8F8F8F"/>
<path d="M1347 170.667C1347 171.572 1347.32 172.44 1347.88 173.08C1348.44 173.72 1349.2 174.08 1350 174.08C1350.8 174.08 1351.56 173.72 1352.12 173.08C1352.68 172.44 1353 171.572 1353 170.667C1353 169.761 1352.68 168.893 1352.12 168.253C1351.56 167.613 1350.8 167.253 1350 167.253C1349.2 167.253 1348.44 167.613 1347.88 168.253C1347.32 168.893 1347 169.761 1347 170.667V170.667Z" stroke="#8F8F8F"/>
<path d="M1345 238.933C1345 240.442 1345.53 241.889 1346.46 242.956C1347.4 244.023 1348.67 244.622 1350 244.622C1351.33 244.622 1352.6 244.023 1353.54 242.956C1354.47 241.889 1355 240.442 1355 238.933C1355 237.425 1354.47 235.978 1353.54 234.911C1352.6 233.844 1351.33 233.244 1350 233.244C1348.67 233.244 1347.4 233.844 1346.46 234.911C1345.53 235.978 1345 237.425 1345 238.933V238.933Z" stroke="#8F8F8F"/>
<path d="M1356 300.373L1344 314.027L1356 300.373Z" stroke="#8F8F8F"/>
<path d="M1356 368.64L1344 382.293L1356 368.64Z" stroke="#8F8F8F"/>
<path d="M1356 436.907L1344 450.56L1356 436.907Z" stroke="#8F8F8F"/>
<path d="M1356 505.173L1344 518.827L1356 505.173Z" stroke="#8F8F8F"/>
<path d="M1345 580.267C1345 581.775 1345.53 583.222 1346.46 584.289C1347.4 585.356 1348.67 585.956 1350 585.956C1351.33 585.956 1352.6 585.356 1353.54 584.289C1354.47 583.222 1355 581.775 1355 580.267C1355 578.758 1354.47 577.311 1353.54 576.244C1352.6 575.177 1351.33 574.578 1350 574.578C1348.67 574.578 1347.4 575.177 1346.46 576.244C1345.53 577.311 1345 578.758 1345 580.267V580.267Z" stroke="#8F8F8F"/>
<path d="M1345 648.533C1345 650.042 1345.53 651.489 1346.46 652.556C1347.4 653.623 1348.67 654.222 1350 654.222C1351.33 654.222 1352.6 653.623 1353.54 652.556C1354.47 651.489 1355 650.042 1355 648.533C1355 647.025 1354.47 645.578 1353.54 644.511C1352.6 643.444 1351.33 642.844 1350 642.844C1348.67 642.844 1347.4 643.444 1346.46 644.511C1345.53 645.578 1345 647.025 1345 648.533V648.533Z" stroke="#8F8F8F"/>
<path d="M1349 716.8C1349 717.102 1349.11 717.391 1349.29 717.605C1349.48 717.818 1349.73 717.938 1350 717.938C1350.27 717.938 1350.52 717.818 1350.71 717.605C1350.89 717.391 1351 717.102 1351 716.8C1351 716.498 1350.89 716.209 1350.71 715.995C1350.52 715.782 1350.27 715.662 1350 715.662C1349.73 715.662 1349.48 715.782 1349.29 715.995C1349.11 716.209 1349 716.498 1349 716.8V716.8Z" stroke="#8F8F8F"/>
<path d="M1356 778.24L1344 791.893L1356 778.24Z" stroke="#8F8F8F"/>
<path d="M1405 34.1333C1405 35.6421 1405.53 37.0891 1406.46 38.156C1407.4 39.2229 1408.67 39.8222 1410 39.8222C1411.33 39.8222 1412.6 39.2229 1413.54 38.156C1414.47 37.0891 1415 35.6421 1415 34.1333C1415 32.6246 1414.47 31.1776 1413.54 30.1107C1412.6 29.0438 1411.33 28.4445 1410 28.4445C1408.67 28.4445 1407.4 29.0438 1406.46 30.1107C1405.53 31.1776 1405 32.6246 1405 34.1333V34.1333Z" stroke="#8F8F8F"/>
<path d="M1416 95.5733L1404 109.227L1416 95.5733Z" stroke="#8F8F8F"/>
<path d="M1416 163.84L1404 177.493L1416 163.84Z" stroke="#8F8F8F"/>
<path d="M1416 232.107L1404 245.76L1416 232.107Z" stroke="#8F8F8F"/>
<path d="M1405 307.2C1405 308.709 1405.53 310.156 1406.46 311.223C1407.4 312.29 1408.67 312.889 1410 312.889C1411.33 312.889 1412.6 312.29 1413.54 311.223C1414.47 310.156 1415 308.709 1415 307.2C1415 305.691 1414.47 304.244 1413.54 303.177C1412.6 302.11 1411.33 301.511 1410 301.511C1408.67 301.511 1407.4 302.11 1406.46 303.177C1405.53 304.244 1405 305.691 1405 307.2V307.2Z" stroke="#8F8F8F"/>
<path d="M1405 375.467C1405 376.975 1405.53 378.422 1406.46 379.489C1407.4 380.556 1408.67 381.156 1410 381.156C1411.33 381.156 1412.6 380.556 1413.54 379.489C1414.47 378.422 1415 376.975 1415 375.467C1415 373.958 1414.47 372.511 1413.54 371.444C1412.6 370.377 1411.33 369.778 1410 369.778C1408.67 369.778 1407.4 370.377 1406.46 371.444C1405.53 372.511 1405 373.958 1405 375.467V375.467Z" stroke="#8F8F8F"/>
<path d="M1412 441.458L1408 446.009L1412 441.458Z" stroke="#8F8F8F"/>
<path d="M1416 505.173L1404 518.827L1416 505.173Z" stroke="#8F8F8F"/>
<path d="M1412 577.991L1408 582.542L1412 577.991Z" stroke="#8F8F8F"/>
<path d="M1405 648.533C1405 650.042 1405.53 651.489 1406.46 652.556C1407.4 653.623 1408.67 654.222 1410 654.222C1411.33 654.222 1412.6 653.623 1413.54 652.556C1414.47 651.489 1415 650.042 1415 648.533C1415 647.025 1414.47 645.578 1413.54 644.511C1412.6 643.444 1411.33 642.844 1410 642.844C1408.67 642.844 1407.4 643.444 1406.46 644.511C1405.53 645.578 1405 647.025 1405 648.533V648.533Z" stroke="#8F8F8F"/>
<path d="M1407 716.8C1407 717.705 1407.32 718.573 1407.88 719.214C1408.44 719.854 1409.2 720.213 1410 720.213C1410.8 720.213 1411.56 719.854 1412.12 719.214C1412.68 718.573 1413 717.705 1413 716.8C1413 715.895 1412.68 715.026 1412.12 714.386C1411.56 713.746 1410.8 713.387 1410 713.387C1409.2 713.387 1408.44 713.746 1407.88 714.386C1407.32 715.026 1407 715.895 1407 716.8V716.8Z" stroke="#8F8F8F"/>
<path d="M1416 778.24L1404 791.893L1416 778.24Z" stroke="#8F8F8F"/>
<path d="M756 846.507L744 860.16L756 846.507Z" stroke="#8F8F8F"/>
<path d="M756 914.773L744 928.427L756 914.773Z" stroke="#8F8F8F"/>
<path d="M745 989.867C745 991.375 745.527 992.822 746.464 993.889C747.402 994.956 748.674 995.556 750 995.556C751.326 995.556 752.598 994.956 753.536 993.889C754.473 992.822 755 991.375 755 989.867C755 988.358 754.473 986.911 753.536 985.844C752.598 984.777 751.326 984.178 750 984.178C748.674 984.178 747.402 984.777 746.464 985.844C745.527 986.911 745 988.358 745 989.867V989.867Z" stroke="#8F8F8F"/>
<path d="M805 853.333C805 854.842 805.527 856.289 806.464 857.356C807.402 858.423 808.674 859.022 810 859.022C811.326 859.022 812.598 858.423 813.536 857.356C814.473 856.289 815 854.842 815 853.333C815 851.825 814.473 850.378 813.536 849.311C812.598 848.244 811.326 847.644 810 847.644C808.674 847.644 807.402 848.244 806.464 849.311C805.527 850.378 805 851.825 805 853.333V853.333Z" stroke="#8F8F8F"/>
<path d="M805 921.6C805 923.109 805.527 924.556 806.464 925.623C807.402 926.69 808.674 927.289 810 927.289C811.326 927.289 812.598 926.69 813.536 925.623C814.473 924.556 815 923.109 815 921.6C815 920.091 814.473 918.644 813.536 917.577C812.598 916.51 811.326 915.911 810 915.911C808.674 915.911 807.402 916.51 806.464 917.577C805.527 918.644 805 920.091 805 921.6V921.6Z" stroke="#8F8F8F"/>
<path d="M816 983.04L804 996.693L816 983.04Z" stroke="#8F8F8F"/>
<path d="M876 846.507L864 860.16L876 846.507Z" stroke="#8F8F8F"/>
<path d="M900 887.467L840 955.733L900 887.467Z" stroke="#8F8F8F" stroke-width="3"/>
<path d="M869 989.867C869 990.168 869.105 990.458 869.293 990.671C869.48 990.885 869.735 991.004 870 991.004C870.265 991.004 870.52 990.885 870.707 990.671C870.895 990.458 871 990.168 871 989.867C871 989.565 870.895 989.276 870.707 989.062C870.52 988.849 870.265 988.729 870 988.729C869.735 988.729 869.48 988.849 869.293 989.062C869.105 989.276 869 989.565 869 989.867V989.867Z" stroke="#8F8F8F"/>
<path d="M932 851.058L928 855.609L932 851.058Z" stroke="#8F8F8F"/>
<path d="M936 914.773L924 928.427L936 914.773Z" stroke="#8F8F8F"/>
<path d="M925 989.867C925 991.375 925.527 992.822 926.464 993.889C927.402 994.956 928.674 995.556 930 995.556C931.326 995.556 932.598 994.956 933.536 993.889C934.473 992.822 935 991.375 935 989.867C935 988.358 934.473 986.911 933.536 985.844C932.598 984.777 931.326 984.178 930 984.178C928.674 984.178 927.402 984.777 926.464 985.844C925.527 986.911 925 988.358 925 989.867V989.867Z" stroke="#8F8F8F"/>
<path d="M985 853.333C985 854.842 985.527 856.289 986.464 857.356C987.402 858.423 988.674 859.022 990 859.022C991.326 859.022 992.598 858.423 993.536 857.356C994.473 856.289 995 854.842 995 853.333C995 851.825 994.473 850.378 993.536 849.311C992.598 848.244 991.326 847.644 990 847.644C988.674 847.644 987.402 848.244 986.464 849.311C985.527 850.378 985 851.825 985 853.333V853.333Z" stroke="#8F8F8F"/>
<path d="M989 921.6C989 921.902 989.105 922.191 989.293 922.405C989.48 922.618 989.735 922.738 990 922.738C990.265 922.738 990.52 922.618 990.707 922.405C990.895 922.191 991 921.902 991 921.6C991 921.298 990.895 921.009 990.707 920.795C990.52 920.582 990.265 920.462 990 920.462C989.735 920.462 989.48 920.582 989.293 920.795C989.105 921.009 989 921.298 989 921.6V921.6Z" stroke="#8F8F8F"/>
<path d="M985 989.867C985 991.375 985.527 992.822 986.464 993.889C987.402 994.956 988.674 995.556 990 995.556C991.326 995.556 992.598 994.956 993.536 993.889C994.473 992.822 995 991.375 995 989.867C995 988.358 994.473 986.911 993.536 985.844C992.598 984.777 991.326 984.178 990 984.178C988.674 984.178 987.402 984.777 986.464 985.844C985.527 986.911 985 988.358 985 989.867V989.867Z" stroke="#8F8F8F"/>
<path d="M1052 851.058L1048 855.609L1052 851.058Z" stroke="#8F8F8F"/>
<path d="M1045 921.6C1045 923.109 1045.53 924.556 1046.46 925.623C1047.4 926.69 1048.67 927.289 1050 927.289C1051.33 927.289 1052.6 926.69 1053.54 925.623C1054.47 924.556 1055 923.109 1055 921.6C1055 920.091 1054.47 918.644 1053.54 917.577C1052.6 916.51 1051.33 915.911 1050 915.911C1048.67 915.911 1047.4 916.51 1046.46 917.577C1045.53 918.644 1045 920.091 1045 921.6V921.6Z" stroke="#8F8F8F"/>
<path d="M1056 983.04L1044 996.693L1056 983.04Z" stroke="#8F8F8F"/>
<path d="M1105 853.333C1105 854.842 1105.53 856.289 1106.46 857.356C1107.4 858.423 1108.67 859.022 1110 859.022C1111.33 859.022 1112.6 858.423 1113.54 857.356C1114.47 856.289 1115 854.842 1115 853.333C1115 851.825 1114.47 850.378 1113.54 849.311C1112.6 848.244 1111.33 847.644 1110 847.644C1108.67 847.644 1107.4 848.244 1106.46 849.311C1105.53 850.378 1105 851.825 1105 853.333V853.333Z" stroke="#8F8F8F"/>
<path d="M1112 919.324L1108 923.876L1112 919.324Z" stroke="#8F8F8F"/>
<path d="M1112 987.591L1108 992.142L1112 987.591Z" stroke="#8F8F8F"/>
<path d="M1165 853.333C1165 854.842 1165.53 856.289 1166.46 857.356C1167.4 858.423 1168.67 859.022 1170 859.022C1171.33 859.022 1172.6 858.423 1173.54 857.356C1174.47 856.289 1175 854.842 1175 853.333C1175 851.825 1174.47 850.378 1173.54 849.311C1172.6 848.244 1171.33 847.644 1170 847.644C1168.67 847.644 1167.4 848.244 1166.46 849.311C1165.53 850.378 1165 851.825 1165 853.333V853.333Z" stroke="#8F8F8F"/>
<path d="M1172 919.324L1168 923.876L1172 919.324Z" stroke="#8F8F8F"/>
<path d="M1176 983.04L1164 996.693L1176 983.04Z" stroke="#8F8F8F"/>
<path d="M1236 846.507L1224 860.16L1236 846.507Z" stroke="#8F8F8F"/>
<path d="M1236 914.773L1224 928.427L1236 914.773Z" stroke="#8F8F8F"/>
<path d="M1232 987.591L1228 992.142L1232 987.591Z" stroke="#8F8F8F"/>
<path d="M1285 853.333C1285 854.842 1285.53 856.289 1286.46 857.356C1287.4 858.423 1288.67 859.022 1290 859.022C1291.33 859.022 1292.6 858.423 1293.54 857.356C1294.47 856.289 1295 854.842 1295 853.333C1295 851.825 1294.47 850.378 1293.54 849.311C1292.6 848.244 1291.33 847.644 1290 847.644C1288.67 847.644 1287.4 848.244 1286.46 849.311C1285.53 850.378 1285 851.825 1285 853.333V853.333Z" stroke="#8F8F8F"/>
<path d="M1287 921.6C1287 922.505 1287.32 923.373 1287.88 924.014C1288.44 924.654 1289.2 925.013 1290 925.013C1290.8 925.013 1291.56 924.654 1292.12 924.014C1292.68 923.373 1293 922.505 1293 921.6C1293 920.695 1292.68 919.827 1292.12 919.186C1291.56 918.546 1290.8 918.187 1290 918.187C1289.2 918.187 1288.44 918.546 1287.88 919.186C1287.32 919.827 1287 920.695 1287 921.6V921.6Z" stroke="#8F8F8F"/>
<path d="M1285 989.867C1285 991.375 1285.53 992.822 1286.46 993.889C1287.4 994.956 1288.67 995.556 1290 995.556C1291.33 995.556 1292.6 994.956 1293.54 993.889C1294.47 992.822 1295 991.375 1295 989.867C1295 988.358 1294.47 986.911 1293.54 985.844C1292.6 984.777 1291.33 984.178 1290 984.178C1288.67 984.178 1287.4 984.777 1286.46 985.844C1285.53 986.911 1285 988.358 1285 989.867V989.867Z" stroke="#8F8F8F"/>
<path d="M1345 853.333C1345 854.842 1345.53 856.289 1346.46 857.356C1347.4 858.423 1348.67 859.022 1350 859.022C1351.33 859.022 1352.6 858.423 1353.54 857.356C1354.47 856.289 1355 854.842 1355 853.333C1355 851.825 1354.47 850.378 1353.54 849.311C1352.6 848.244 1351.33 847.644 1350 847.644C1348.67 847.644 1347.4 848.244 1346.46 849.311C1345.53 850.378 1345 851.825 1345 853.333V853.333Z" stroke="#8F8F8F"/>
<path d="M1356 914.773L1344 928.427L1356 914.773Z" stroke="#8F8F8F"/>
<path d="M1347 989.867C1347 990.772 1347.32 991.64 1347.88 992.28C1348.44 992.92 1349.2 993.28 1350 993.28C1350.8 993.28 1351.56 992.92 1352.12 992.28C1352.68 991.64 1353 990.772 1353 989.867C1353 988.961 1352.68 988.093 1352.12 987.453C1351.56 986.813 1350.8 986.453 1350 986.453C1349.2 986.453 1348.44 986.813 1347.88 987.453C1347.32 988.093 1347 988.961 1347 989.867V989.867Z" stroke="#8F8F8F"/>
<path d="M1405 853.333C1405 854.842 1405.53 856.289 1406.46 857.356C1407.4 858.423 1408.67 859.022 1410 859.022C1411.33 859.022 1412.6 858.423 1413.54 857.356C1414.47 856.289 1415 854.842 1415 853.333C1415 851.825 1414.47 850.378 1413.54 849.311C1412.6 848.244 1411.33 847.644 1410 847.644C1408.67 847.644 1407.4 848.244 1406.46 849.311C1405.53 850.378 1405 851.825 1405 853.333V853.333Z" stroke="#8F8F8F"/>
<path d="M1416 914.773L1404 928.427L1416 914.773Z" stroke="#8F8F8F"/>
<path d="M1416 983.04L1404 996.693L1416 983.04Z" stroke="#8F8F8F"/>
</g>
</g>
<defs>
<clipPath id="clip0_2_8">
<rect width="1440" height="1024" fill="white"/>
</clipPath>
</defs>
</svg>
